<?xml version="1.0" encoding="UTF-8"?>
<svg width="298px" height="264px" viewBox="0 0 298 264" version="1.1" xmlns="http://www.w3.org/2000/svg" xmlns:xlink="http://www.w3.org/1999/xlink">
    <title>CapWay Card</title>
    <defs>
        <rect id="path-1" x="0" y="0" width="249.435897" height="160" rx="9.84615385"></rect>
        <linearGradient x1="85.0977088%" y1="49.8728814%" x2="13.5233555%" y2="49.8728814%" id="linearGradient-3">
            <stop stop-color="#28A8E0" offset="0%"></stop>
            <stop stop-color="#7EC246" offset="100%"></stop>
        </linearGradient>
        <path d="M2.00487206,0.541798942 C0.866255685,1.25170218 0.296947497,2.02307298 0.296947497,2.85591135 C0.296947497,3.68874972 0.296947497,9.88937144 0.296947497,21.4577765 C0.683847528,23.482968 1.75945056,24.363587 3.52375659,24.0996337 C5.28806262,23.8356804 13.7810166,23.7037037 29.0026185,23.7037037 C30.585841,23.1985948 31.3774522,22.0845427 31.3774522,20.3615475 C31.3774522,18.6385523 31.2784697,12.8033403 31.0805047,2.85591135 C31.3246364,1.11520475 30.1493517,0.244851445 27.5546506,0.244851445 C24.9599495,0.244851445 16.4433566,0.343833944 2.00487206,0.541798942 Z" id="path-4"></path>
        <linearGradient x1="24.8421927%" y1="75.1350195%" x2="75.3515281%" y2="24.53484%" id="linearGradient-6">
            <stop stop-color="#FBC926" offset="0%"></stop>
            <stop stop-color="#FBC926" offset="0.5618%"></stop>
            <stop stop-color="#FFFBCC" offset="25.28%"></stop>
            <stop stop-color="#F8EBB8" offset="29.86%"></stop>
            <stop stop-color="#E7CF8E" offset="38.96%"></stop>
            <stop stop-color="#D0A953" offset="51.59%"></stop>
            <stop stop-color="#C3922E" offset="59.55%"></stop>
            <stop stop-color="#E2C675" offset="81.43%"></stop>
            <stop stop-color="#EED688" offset="87.08%"></stop>
            <stop stop-color="#FFFBCC" offset="100%"></stop>
        </linearGradient>
    </defs>
    <g id="1.0-home" stroke="none" stroke-width="1" fill="none" fill-rule="evenodd">
        <g id="home/1.-Home---A" transform="translate(-1093.000000, -1598.000000)">
            <g id="Download" transform="translate(0.000000, 1539.000000)">
                <g id="CapWay-Card" transform="translate(1242.000000, 191.000000) rotate(-30.000000) translate(-1242.000000, -191.000000) translate(1117.000000, 111.000000)">
                    <mask id="mask-2" fill="white">
                        <use xlink:href="#path-1"></use>
                    </mask>
                    <use id="Mask" fill="#D8D8D8" xlink:href="#path-1"></use>
                    <g mask="url(#mask-2)">
                        <g transform="translate(0.000000, 0.000000)">
                            <rect id="Black_card_color" fill="#000000" fill-rule="nonzero" x="0" y="3.88672949e-14" width="249.435897" height="159.658771"></rect>
                            <path d="M110.167521,61.3691494 C108.385836,57.3108669 104.327554,54.4403744 99.576394,54.4403744 C93.241514,54.4403744 87.9954416,59.5874644 87.9954416,65.9223443 C87.9954416,72.2572243 93.1425315,77.4043142 99.576394,77.4043142 C104.129589,77.4043142 108.088889,74.7317867 109.969556,70.8714693 L105.911274,70.8714693 C104.426536,72.7521368 102.149939,73.9399267 99.576394,73.9399267 C95.1221815,73.9399267 91.4598291,70.2775743 91.4598291,65.8233618 C91.4598291,61.3691494 95.1221815,57.7067969 99.576394,57.7067969 C102.347904,57.7067969 104.822466,59.0925519 106.307204,61.1711844 L110.167521,61.3691494 L110.167521,61.3691494 Z M129.073179,71.6633293 L119.669841,71.6633293 L117.195279,76.4144892 L113.631909,76.4144892 L124.519984,55.4301994 L134.913146,76.4144892 L131.349776,76.4144892 L129.073179,71.6633293 Z M127.687424,68.8918193 L124.421001,62.1610094 L121.055596,68.8918193 L127.687424,68.8918193 Z M143.623606,68.3969068 L143.623606,76.4144892 L140.357184,76.4144892 L140.357184,56.6179894 L144.118519,56.6179894 C145.999186,56.6179894 147.285958,56.7169719 148.275783,56.9149369 C149.166626,57.1129019 150.057468,57.6078144 150.750346,58.2017094 C152.037118,59.2905169 152.631013,60.6762719 152.631013,62.3589744 C152.631013,64.1406593 151.938136,65.6253968 150.651363,66.6152218 C149.364591,67.6050468 147.483923,68.1989418 145.207326,68.1989418 L143.623606,68.1989418 L143.623606,68.3969068 Z M143.623606,65.6253968 L144.811396,65.6253968 C147.879853,65.6253968 149.364591,64.5365893 149.364591,62.4579569 C149.364591,60.3793244 147.780871,59.3894994 144.712414,59.3894994 L143.524624,59.3894994 L143.623606,65.6253968 L143.623606,65.6253968 Z M159.757753,56.7169719 L165.498738,69.8816443 L171.437688,55.7271469 L177.178673,69.8816443 L183.216606,56.7169719 L186.779976,56.7169719 L176.980708,77.7012617 L171.338706,63.7447293 L165.498738,77.8002442 L156.194383,56.8159544 L159.757753,56.8159544 L159.757753,56.7169719 Z M199.944648,71.6633293 L190.541311,71.6633293 L188.066748,76.4144892 L184.503378,76.4144892 L195.391453,55.4301994 L205.784615,76.4144892 L202.221245,76.4144892 L199.944648,71.6633293 Z M198.558893,68.8918193 L195.29247,62.1610094 L191.927066,68.8918193 L198.558893,68.8918193 Z M211.426618,67.9019943 L204.299878,56.7169719 L208.061213,56.7169719 L213.10932,64.6355718 L218.157428,56.7169719 L221.918763,56.7169719 L214.792023,67.9019943 L214.792023,76.4144892 L211.5256,76.4144892 L211.426618,67.9019943 L211.426618,67.9019943 Z" id="Shape" fill="url(#linearGradient-3)" fill-rule="evenodd"></path>
                            <text id="Nailah_Jones" fill="#50A7DD" fill-rule="nonzero" font-family="Helvetica" font-size="13.0600479" font-weight="normal">
                                <tspan x="23.9930608" y="133.297192">Nailah Jones</tspan>
                            </text>
                            <g id="Group" stroke-width="1" fill="none" fill-rule="evenodd" transform="translate(205.883598, 114.819699)">
                                <path d="M6.63182743,4.15726496 C6.63182743,5.44403744 6.23589744,6.43386243 5.54301994,7.12673993 C4.85014245,7.81961742 3.76133496,8.11656492 2.47456247,8.11656492 L0.296947497,8.11656492 L0.296947497,0.395929996 L2.67252747,0.395929996 C3.86031746,0.395929996 4.85014245,0.692877493 5.54301994,1.38575499 C6.33487993,1.97964998 6.63182743,2.96947497 6.63182743,4.15726496 Z M5.24607245,4.15726496 C5.24607245,2.27659748 4.35522996,1.38575499 2.67252747,1.38575499 L1.58371998,1.38575499 L1.58371998,7.02775743 L2.47456247,7.02775743 C4.35522996,7.02775743 5.24607245,6.13691494 5.24607245,4.15726496 Z" id="Shape" fill="#FFFFFF" fill-rule="nonzero"></path>
                                <polygon id="Path" fill="#FFFFFF" fill-rule="nonzero" points="12.6697599 8.11656492 8.31452991 8.11656492 8.31452991 0.395929996 12.6697599 0.395929996 12.6697599 1.48473748 9.5023199 1.48473748 9.5023199 3.56336996 12.4717949 3.56336996 12.4717949 4.65217745 9.5023199 4.65217745 9.5023199 7.12673993 12.6697599 7.12673993"></polygon>
                                <path d="M14.3524624,0.296947497 L16.6290598,0.296947497 C17.7178673,0.296947497 18.5097273,0.494912495 18.9056573,0.791859992 C19.4005698,1.08880749 19.5985348,1.58371998 19.5985348,2.27659748 C19.5985348,2.77150997 19.4995523,3.06845747 19.2026048,3.36540497 C19.0046398,3.66235246 18.6087098,3.86031746 18.2127798,3.95929996 L18.2127798,4.05828246 C18.8066748,4.15726496 19.2026048,4.35522996 19.4005698,4.65217745 C19.6975173,4.94912495 19.7964998,5.34505495 19.7964998,5.83996744 C19.7964998,6.53284493 19.5985348,7.12673993 19.1036223,7.52266992 C18.6087098,7.91859992 17.9158323,8.11656492 17.0249898,8.11656492 L14.2534799,8.11656492 L14.3524624,0.296947497 L14.3524624,0.296947497 Z M15.6392348,3.56336996 L16.8270248,3.56336996 C17.3219373,3.56336996 17.7178673,3.46438746 18.0148148,3.36540497 C18.3117623,3.26642247 18.4107448,2.87049247 18.4107448,2.47456247 C18.4107448,2.07863248 18.3117623,1.88066748 18.0148148,1.68270248 C17.7178673,1.48473748 17.3219373,1.48473748 16.7280423,1.48473748 L15.6392348,1.48473748 L15.6392348,3.56336996 L15.6392348,3.56336996 Z M15.6392348,4.55319495 L15.6392348,7.02775743 L17.0249898,7.02775743 C17.5199023,7.02775743 17.9158323,6.92877493 18.2127798,6.73080993 C18.5097273,6.53284493 18.6087098,6.23589744 18.6087098,5.74098494 C18.6087098,5.34505495 18.5097273,5.04810745 18.2127798,4.85014245 C17.9158323,4.65217745 17.5199023,4.55319495 16.9260073,4.55319495 C16.9260073,4.55319495 15.6392348,4.55319495 15.6392348,4.55319495 Z" id="Shape" fill="#FFFFFF" fill-rule="nonzero"></path>
                                <polygon id="Path" fill="#FFFFFF" fill-rule="nonzero" points="21.5781848 8.11656492 21.5781848 0.395929996 22.8649573 0.395929996 22.8649573 8.11656492"></polygon>
                                <polygon id="Path" fill="#FFFFFF" fill-rule="nonzero" points="27.6161172 8.11656492 26.3293447 8.11656492 26.3293447 1.38575499 24.0527473 1.38575499 24.0527473 0.296947497 29.8927147 0.296947497 29.8927147 1.38575499 27.6161172 1.38575499 27.6161172 8.11656492"></polygon>
                            </g>
                            <g id="Group" stroke-width="1" fill="none" fill-rule="evenodd" transform="translate(32.221408, 53.997558)">
                                <g id="Path" transform="translate(0.244851, 0.000000)">
                                    <mask id="mask-5" fill="white">
                                        <use xlink:href="#path-4"></use>
                                    </mask>
                                    <g id="Mask"></g>
                                    <polygon fill="url(#linearGradient-6)" fill-rule="nonzero" mask="url(#mask-5)" points="-11.8778999 12.1227513 15.6392348 -15.3943834 43.1563696 12.1227513 15.6392348 39.7388685"></polygon>
                                </g>
                                <path d="M28.8507937,0.244851445 C20.2393162,0.244851445 11.6278388,0.244851445 3.01636142,0.244851445 C1.23467643,0.244851445 0.244851445,1.23467643 0.244851445,3.80822141 C0.244851445,9.45022385 0.244851445,15.2901913 0.244851445,20.7342287 C0.244851445,22.7138787 1.23467643,24.0996337 3.01636142,24.0996337 L15.8840863,24.0996337 C20.2393162,24.0996337 24.4955637,24.0996337 28.8507937,24.0996337 C30.5334961,24.0996337 31.6223036,22.8128612 31.6223036,21.0311762 C31.6223036,14.9932438 31.6223036,9.05429385 31.6223036,3.01636142 C31.6223036,1.33365893 30.4345136,0.244851445 28.8507937,0.244851445 L28.8507937,0.244851445 Z M0.541798942,7.66853887 L0.541798942,3.51127391 C0.541798942,1.53162393 1.53162393,0.640781441 3.11534392,0.541798942 C5.68888889,0.541798942 7.37159137,0.541798942 9.94513635,0.541798942 C10.2420838,0.541798942 10.6380138,0.73976394 10.8359788,0.937728938 C12.1227513,2.22450142 13.6074888,3.21432641 14.8942613,4.4021164 C14.9932438,4.5010989 15.0922263,4.6000814 15.0922263,4.6990639 C15.0922263,5.29295889 15.0922263,5.68888889 15.0922263,6.18380138 C15.0922263,6.97566138 14.3993488,7.66853887 13.6074888,7.66853887 L0.541798942,7.66853887 L0.541798942,7.66853887 Z M11.5288563,8.75734636 L11.5288563,15.3891738 C11.5288563,15.6861213 11.2319088,15.9830688 10.9349613,15.9830688 L0.541798942,15.9830688 L0.541798942,8.75734636 C0.541798942,8.36141636 0.838746439,8.06446886 1.13569394,8.06446886 L10.8359788,8.06446886 C11.2319088,8.16345136 11.5288563,8.36141636 11.5288563,8.75734636 L11.5288563,8.75734636 Z M10.1431013,23.7037037 C7.47057387,23.7037037 5.68888889,23.7037037 3.11534392,23.7037037 C1.63060643,23.7037037 0.640781441,22.6148962 0.640781441,21.1301587 C0.640781441,19.5464387 0.640781441,17.9627188 0.640781441,16.4779813 L13.9044363,16.4779813 C14.5973138,16.4779813 14.8942613,16.9728938 15.0922263,17.6657713 C15.0922263,17.8637363 15.0922263,18.2596663 15.0922263,18.3586488 C15.0922263,18.9525438 14.9932438,19.6454212 14.3993488,20.2393162 C13.1125763,21.4271062 11.8258038,22.3179487 10.6380138,23.6047212 C10.4400488,23.6047212 10.2420838,23.7037037 10.1431013,23.7037037 L10.1431013,23.7037037 Z M20.3382987,7.66853887 C20.0413512,7.66853887 19.7444037,7.96548637 19.7444037,8.26243386 L19.7444037,15.4881563 C19.7444037,15.6861213 19.5464387,15.8840863 19.3484737,15.8840863 L19.2494912,15.8840863 L19.2494912,15.8840863 L17.9627188,15.8840863 C16.9728938,15.8840863 16.1810338,16.6759463 16.1810338,17.6657713 L16.1810338,18.6555963 C16.1810338,19.0515263 16.2800163,19.8433862 16.5769638,20.1403337 L20.6352462,23.6047212 L21.6250712,23.6047212 C21.5260887,23.6047212 21.3281237,23.5057387 21.2291412,23.4067562 C20.0413512,22.1199837 18.6555963,21.2291412 17.4678063,20.0413512 C16.7749288,19.4474562 16.7749288,18.8535613 16.7749288,18.2596663 C16.7749288,17.9627188 16.7749288,17.6657713 16.7749288,17.4678063 C16.9728938,16.8739113 17.2698413,16.3789988 17.9627188,16.3789988 L19.2494912,16.3789988 L19.2494912,16.3789988 L31.3253561,16.3789988 C31.3253561,18.0617013 31.3253561,19.2494912 31.3253561,20.9321937 C31.3253561,22.6148962 30.3355311,23.6047212 28.7518112,23.6047212 C26.2772487,23.6047212 23.8026862,23.6047212 21.3281237,23.6047212 L20.5362637,23.6047212 L11.2319088,23.6047212 L15.2901913,20.1403337 C15.5871388,19.8433862 15.6861213,19.0515263 15.6861213,18.6555963 L15.6861213,17.6657713 C15.6861213,16.6759463 14.8942613,15.8840863 13.9044363,15.8840863 L12.6176638,15.8840863 C12.3207163,15.8840863 12.0237688,15.5871388 12.0237688,15.2901913 L12.0237688,8.85632886 C12.0237688,8.46039886 12.3207163,8.06446886 12.8156288,8.06446886 L13.8054538,8.06446886 C15.4881563,8.06446886 15.7851038,6.77769638 15.7851038,6.38176638 C15.7851038,5.78787139 15.7851038,4.7980464 15.7851038,4.4021164 C15.7851038,4.3031339 15.6861213,4.10516891 15.5871388,4.10516891 L11.3308913,0.640781441 L20.0413512,0.640781441 L20.3382987,0.640781441 L16.3789988,4.10516891 C16.2800163,4.2041514 16.1810338,4.3031339 16.1810338,4.5010989 C16.1810338,5.39194139 16.1810338,6.97566138 16.1810338,7.27260887 C16.1810338,7.56955637 16.6759463,7.56955637 16.6759463,7.27260887 C16.6759463,6.97566138 16.6759463,5.39194139 16.6759463,4.7980464 C16.6759463,4.6990639 16.6759463,4.6000814 16.7749288,4.6000814 C18.2596663,3.21432641 19.7444037,2.02653643 21.2291412,0.640781441 C21.2291412,0.640781441 21.2291412,0.640781441 21.2291412,0.640781441 C23.7037037,0.640781441 26.1782662,0.640781441 28.6528287,0.640781441 C30.2365486,0.640781441 31.2263736,1.63060643 31.2263736,3.31330891 C31.2263736,5.09499389 31.2263736,5.98583639 31.2263736,7.76752137 L20.3382987,7.66853887 L20.3382987,7.66853887 Z M31.2263736,8.16345136 L31.2263736,15.9830688 L20.6352462,15.9830688 C20.4372812,15.9830688 20.2393162,15.7851038 20.2393162,15.5871388 L20.2393162,8.65836386 C20.2393162,8.46039886 20.4372812,8.26243386 20.6352462,8.26243386 L31.2263736,8.26243386 L31.2263736,8.16345136 Z" id="Shape" fill="#000000" fill-rule="nonzero"></path>
                            </g>
                            <path d="M203.804965,131.448759 L196.87619,147.978836 L192.322996,147.978836 L188.957591,134.814164 C188.759626,134.022304 188.561661,133.725356 187.967766,133.329426 C186.977941,132.735531 185.196256,132.240619 183.711518,131.943671 L183.810501,131.448759 L191.135206,131.448759 C192.026048,131.448759 192.916891,132.042654 193.114856,133.131461 L194.89654,142.732764 L199.350753,131.448759 L203.804965,131.448759 L203.804965,131.448759 Z M221.522833,142.534799 C221.522833,138.179569 215.4849,137.981604 215.4849,136.001954 C215.4849,135.408059 216.078795,134.814164 217.266585,134.616199 C217.86048,134.517216 219.543183,134.517216 221.522833,135.408059 L222.314693,131.943671 C221.324868,131.547741 219.939113,131.250794 218.355393,131.250794 C214.099145,131.250794 211.12967,133.527391 211.12967,136.694831 C211.12967,139.070411 213.208303,140.456166 214.891005,141.248026 C216.573708,142.039886 217.06862,142.534799 217.06862,143.326659 C217.06862,144.415466 215.781848,144.910379 214.495075,144.910379 C212.31746,144.910379 211.12967,144.316484 210.139845,143.821571 L209.347985,147.483923 C210.33781,147.978836 212.218478,148.374766 214.099145,148.374766 C218.553358,148.176801 221.522833,145.999186 221.522833,142.534799 L221.522833,142.534799 Z M232.707855,147.879853 L236.667155,147.879853 L233.202768,131.349776 L229.540415,131.349776 C228.748555,131.349776 228.055678,131.844689 227.75873,132.537566 L221.324868,147.879853 L225.77908,147.879853 L226.669923,145.405291 L232.11396,145.405291 L232.707855,147.879853 Z M227.857713,142.039886 L230.13431,135.803989 L231.421083,142.039886 L227.857713,142.039886 Z M209.94188,131.448759 L206.37851,147.978836 L202.122263,147.978836 L205.685633,131.448759 L209.94188,131.448759 Z" id="Shape" fill="#FFFFFF" fill-rule="nonzero"></path>
                        </g>
                    </g>
                </g>
            </g>
        </g>
    </g>
</svg>