<?xml version="1.0" encoding="UTF-8"?>
<svg width="173px" height="30px" viewBox="0 0 173 30" version="1.1" xmlns="http://www.w3.org/2000/svg" xmlns:xlink="http://www.w3.org/1999/xlink">
    <title>logo/white</title>
    <defs>
        <path d="M14.9421236,0 C6.68955598,0 0,6.648 0,14.8473333 L0,14.8473333 C0,23.0486667 6.68955598,29.696 14.9421236,29.696 L14.9421236,29.696 C20.8521776,29.696 25.9613552,26.2853333 28.3846911,21.3366667 L28.3846911,21.3366667 L23.1706448,21.3366667 C21.2462703,23.7426667 18.2765483,25.2853333 14.9434595,25.2853333 L14.9434595,25.2853333 C9.14294981,25.2853333 4.44122394,20.6126667 4.44122394,14.8493333 L4.44122394,14.8493333 C4.44122394,9.086 9.14294981,4.41333333 14.9434595,4.41333333 L14.9434595,4.41333333 C18.5303707,4.41333333 21.696471,6.2 23.5914556,8.926 L23.5914556,8.926 L28.6478649,8.926 C26.3460965,3.67333333 21.0759421,0 14.9421236,0 Z M124.7851,28.3666667 L129.37795,28.3666667 L132.525347,22.1786667 L144.620653,22.1786667 L147.585031,28.3666667 L152.251355,28.3666667 L138.765371,1.28733333 L124.7851,28.3666667 Z M138.691228,9.902 L142.881969,18.5646667 L134.300768,18.5646667 L138.691228,9.902 Z M33.1986332,28.3666667 L37.7908147,28.3666667 L40.9382124,22.1786667 L53.0335174,22.1786667 L55.9972278,28.3666667 L60.6635521,28.3666667 L47.1775676,1.28733333 L33.1986332,28.3666667 Z M47.1047606,9.902 L51.294834,18.5646667 L42.7129653,18.5646667 L47.1047606,9.902 Z M100.08217,19.918 L92.7259961,2.88866667 L88.0970772,2.88866667 L100.100873,30 L107.675467,11.9306667 L114.940131,29.984 L127.565124,2.88866667 L122.936205,2.88866667 L115.123151,19.918 L107.766977,1.65133333 L100.08217,19.918 Z M168.095884,2.88866667 L161.618069,13.07 L155.159625,2.88866667 L150.256178,2.88866667 L159.477946,17.36 L159.477946,28.3666667 L163.740826,28.3666667 L163.740826,17.36 L173,2.88866667 L168.095884,2.88866667 Z M67.5334556,2.88866667 L67.5334556,28.3666667 L71.7970039,28.3666667 L71.7970039,18.0206667 L73.7728108,18.0206667 C76.7131429,18.0206667 79.0496448,17.3373333 80.7809807,15.974 L80.7809807,15.974 C82.5129846,14.61 83.3793205,12.762 83.3793205,10.43 L83.3793205,10.43 C83.3793205,8.25133333 82.5684247,6.44733333 80.9459653,5.018 L80.9459653,5.018 C80.0188456,4.192 78.945444,3.632 77.7257606,3.334 L77.7257606,3.334 C76.5181004,3.03733333 74.7306564,2.88866667 72.3640965,2.88866667 L72.3640965,2.88866667 L67.5334556,2.88866667 Z M71.7970039,6.436 L73.2063861,6.436 C77.2434981,6.436 79.2620541,7.75066667 79.2620541,10.38 L79.2620541,10.38 C79.2620541,13.0973333 77.3049498,14.456 73.3887375,14.456 L73.3887375,14.456 L71.7970039,14.456 L71.7970039,6.436 Z" id="path-1"></path>
        <linearGradient x1="68.9045851%" y1="51.1009198%" x2="31.2525834%" y2="48.7192833%" id="linearGradient-3">
            <stop stop-color="#26A8E1" offset="0%"></stop>
            <stop stop-color="#70DA44" offset="100%"></stop>
        </linearGradient>
    </defs>
    <g id="2.2-dashboard/send-money" stroke="none" stroke-width="1" fill="none" fill-rule="evenodd">
        <g id="OLD---dashboard/send-money-&amp;-pay/send-money/D---1.1-Capway-Recent-Transfer-Data" transform="translate(-249.000000, -46.000000)">
            <g id="header/clear" transform="translate(249.000000, 30.000000)">
                <g id="Group-3" transform="translate(0.000000, 16.000000)">
                    <path d="M170.203711,28.3074219 C168.640723,28.3074219 167.4,27.0666992 167.4,25.5037109 C167.4,23.9353516 168.640723,22.7 170.203711,22.7 C171.77207,22.7 173.007422,23.9353516 173.007422,25.5037109 C173.007422,27.0666992 171.77207,28.3074219 170.203711,28.3074219 Z M170.203711,27.7488281 C171.460547,27.7488281 172.448828,26.7551758 172.448828,25.5037109 C172.448828,24.246875 171.460547,23.2585937 170.203711,23.2585937 C168.952246,23.2585937 167.958594,24.246875 167.958594,25.5037109 C167.958594,26.7551758 168.952246,27.7488281 170.203711,27.7488281 Z M169.650488,26.7820312 L169.124121,26.7820312 L169.124121,24.1018555 L170.461523,24.1018555 C170.998633,24.1018555 171.396094,24.4509766 171.396094,24.9236328 C171.396094,25.3533203 171.175879,25.6326172 170.773047,25.7292969 L171.514258,26.7820312 L170.869727,26.7820312 L170.176855,25.7991211 L169.650488,25.7991211 L169.650488,26.7820312 Z M169.650488,24.5798828 L169.650488,25.3479492 L170.316504,25.3479492 C170.654883,25.3479492 170.810645,25.2244141 170.810645,24.9504883 C170.810645,24.703418 170.654883,24.5798828 170.332617,24.5798828 L169.650488,24.5798828 Z" id="®" fill="#00ACE2" fill-rule="nonzero"></path>
                    <mask id="mask-2" fill="white">
                        <use xlink:href="#path-1"></use>
                    </mask>
                    <g id="Clip-2"></g>
                    <path d="M14.9421236,0 C6.68955598,0 0,6.648 0,14.8473333 L0,14.8473333 C0,23.0486667 6.68955598,29.696 14.9421236,29.696 L14.9421236,29.696 C20.8521776,29.696 25.9613552,26.2853333 28.3846911,21.3366667 L28.3846911,21.3366667 L23.1706448,21.3366667 C21.2462703,23.7426667 18.2765483,25.2853333 14.9434595,25.2853333 L14.9434595,25.2853333 C9.14294981,25.2853333 4.44122394,20.6126667 4.44122394,14.8493333 L4.44122394,14.8493333 C4.44122394,9.086 9.14294981,4.41333333 14.9434595,4.41333333 L14.9434595,4.41333333 C18.5303707,4.41333333 21.696471,6.2 23.5914556,8.926 L23.5914556,8.926 L28.6478649,8.926 C26.3460965,3.67333333 21.0759421,0 14.9421236,0 Z M124.7851,28.3666667 L129.37795,28.3666667 L132.525347,22.1786667 L144.620653,22.1786667 L147.585031,28.3666667 L152.251355,28.3666667 L138.765371,1.28733333 L124.7851,28.3666667 Z M138.691228,9.902 L142.881969,18.5646667 L134.300768,18.5646667 L138.691228,9.902 Z M33.1986332,28.3666667 L37.7908147,28.3666667 L40.9382124,22.1786667 L53.0335174,22.1786667 L55.9972278,28.3666667 L60.6635521,28.3666667 L47.1775676,1.28733333 L33.1986332,28.3666667 Z M47.1047606,9.902 L51.294834,18.5646667 L42.7129653,18.5646667 L47.1047606,9.902 Z M100.08217,19.918 L92.7259961,2.88866667 L88.0970772,2.88866667 L100.100873,30 L107.675467,11.9306667 L114.940131,29.984 L127.565124,2.88866667 L122.936205,2.88866667 L115.123151,19.918 L107.766977,1.65133333 L100.08217,19.918 Z M168.095884,2.88866667 L161.618069,13.07 L155.159625,2.88866667 L150.256178,2.88866667 L159.477946,17.36 L159.477946,28.3666667 L163.740826,28.3666667 L163.740826,17.36 L173,2.88866667 L168.095884,2.88866667 Z M67.5334556,2.88866667 L67.5334556,28.3666667 L71.7970039,28.3666667 L71.7970039,18.0206667 L73.7728108,18.0206667 C76.7131429,18.0206667 79.0496448,17.3373333 80.7809807,15.974 L80.7809807,15.974 C82.5129846,14.61 83.3793205,12.762 83.3793205,10.43 L83.3793205,10.43 C83.3793205,8.25133333 82.5684247,6.44733333 80.9459653,5.018 L80.9459653,5.018 C80.0188456,4.192 78.945444,3.632 77.7257606,3.334 L77.7257606,3.334 C76.5181004,3.03733333 74.7306564,2.88866667 72.3640965,2.88866667 L72.3640965,2.88866667 L67.5334556,2.88866667 Z M71.7970039,6.436 L73.2063861,6.436 C77.2434981,6.436 79.2620541,7.75066667 79.2620541,10.38 L79.2620541,10.38 C79.2620541,13.0973333 77.3049498,14.456 73.3887375,14.456 L73.3887375,14.456 L71.7970039,14.456 L71.7970039,6.436 Z" id="Fill-1" fill="url(#linearGradient-3)" mask="url(#mask-2)"></path>
                </g>
            </g>
        </g>
    </g>
</svg>