<?xml version="1.0" encoding="UTF-8"?>
<svg width="99px" height="34px" viewBox="0 0 99 34" version="1.1" xmlns="http://www.w3.org/2000/svg" xmlns:xlink="http://www.w3.org/1999/xlink">
    <title>inc-2</title>
    <g id="1.0-home" stroke="none" stroke-width="1" fill="none" fill-rule="evenodd">
        <g id="home/1.-Home-CARD-OPTION-#1" transform="translate(-873.000000, -3314.000000)" fill="#47494A" fill-rule="nonzero">
            <g id="Featured-Section" transform="translate(0.000000, 3148.000000)">
                <g id="Logo" transform="translate(248.000000, 161.001567)">
                    <g id="inc-2" transform="translate(625.240268, 4.998433)">
                        <path d="M98.600732,29.3925212 C98.591023,31.6984045 96.7219339,33.5502855 94.4176773,33.5372558 C92.1507476,33.5243449 90.2953565,31.6413867 90.3079626,29.3669231 C90.3207834,27.0830421 92.192612,25.2407498 94.4925881,25.2480904 C96.7426521,25.2553039 98.6100289,27.1392895 98.600732,29.3925212 L98.600732,29.3925212 Z" id="Path"></path>
                        <path d="M81.1605176,19.6908429 L91.0915515,18.6634946 C90.1213066,12.4994046 86.4969929,8.98929784 80.2187817,8.13317424 C70.801422,6.84898883 64.9797815,11.2152192 63.438759,13.4411406 C61.8977366,15.667062 61.1272253,17.6361462 60.9560006,21.2318654 C60.7847759,24.8275845 63.0106972,28.0808542 63.7812085,28.9369778 C64.5517197,29.7931014 68.0618265,33.9881071 76.965512,33.9881071 C85.8691975,33.9881071 88.7800177,30.5636127 90.2354278,27.3959553 C90.8062055,26.083261 91.0915515,24.9703003 91.0915515,24.0570733 L81.3317424,24.0570733 C81.0463964,26.6254441 79.5909862,27.9096295 76.965512,27.9096295 C73.0273434,27.9096295 72.5136692,24.228298 72.684894,21.2318654 C72.8561187,18.2354328 72.5992816,14.2972642 76.7942873,14.1260395 C79.5909862,14.0119182 81.0463964,15.8667956 81.1605176,19.6908429 Z" id="Path"></path>
                        <g id="Group">
                            <path d="M62.053123,26.3631278 L62.053123,33.4145043 L44.2900992,33.4145043 L44.2900992,26.1210161 L47.6439635,26.1210161 L47.6439635,25.9039031 C47.6437066,23.4253397 47.6445627,20.9466906 47.6423368,18.4680415 C47.6417375,17.7424768 47.4807863,17.0617729 47.036715,16.4708764 C46.5248387,15.7895732 45.8150266,15.4317992 44.9981135,15.279238 C43.520701,15.0033093 42.1380613,15.2219633 40.9279306,16.1631856 C39.8240448,17.0217919 39.2523255,18.1834661 39.2281828,19.5660201 C39.1904278,21.7260199 39.2185942,23.8872183 39.2192791,26.0478175 C40.3687963,26.1105713 41.5067558,26.1105713 42.6583276,26.1105713 L42.6583276,33.4161309 L24.4934395,33.4161309 L24.4934395,26.1234988 L27.7601503,26.1234988 L27.7601503,15.1662296 L24.4923265,15.1662296 L24.4923265,7.86375214 L38.8234932,7.86375214 L38.8234932,12.8989575 C39.0368392,12.6704581 39.2071222,12.5030003 39.3605395,12.3212453 C40.4734146,11.0029862 41.7731815,9.92384237 43.3461374,9.19271281 C44.4408626,8.68391855 45.5926913,8.37434426 46.7884391,8.22957375 C48.811288,7.9847224 50.8233497,8.03001134 52.8125529,8.50353331 C54.2665932,8.84966408 55.6027453,9.44244406 56.7252946,10.457721 C57.8923623,11.5131502 58.5931851,12.8350051 58.879216,14.3660109 C59.0092835,15.0621294 59.077554,15.768384 59.0832302,16.4765268 C59.1046333,19.5909333 59.0924763,22.7055965 59.092562,25.8202598 L59.092562,26.1030375 L62.053123,26.1030375 L62.053123,26.3631278 Z M4.33789269,7.85245131 L0.00214030901,7.85245131 L0.00214030901,0.00402378094 L23.2470091,0.00402378094 L23.2470091,7.80741921 L18.9098869,7.80741921 L18.9098869,26.1050922 L23.2442695,26.1050922 L23.2442695,33.4120215 L0.00633531467,33.4120215 L0.00633531467,26.1222146 L4.33789269,26.1222146 L4.33789269,7.85245131 Z" id="Shape"></path>
                        </g>
                    </g>
                </g>
            </g>
        </g>
    </g>
</svg>