<?xml version="1.0" encoding="UTF-8"?>
<svg width="75px" height="34px" viewBox="0 0 75 34" version="1.1" xmlns="http://www.w3.org/2000/svg" xmlns:xlink="http://www.w3.org/1999/xlink">
    <title>cnn-logo</title>
    <g id="1.0-home" stroke="none" stroke-width="1" fill="none" fill-rule="evenodd">
        <g id="home/1.-Home-CARD-OPTION-#1" transform="translate(-495.000000, -3314.000000)" fill="#47494A" fill-rule="nonzero">
            <g id="Featured-Section" transform="translate(0.000000, 3148.000000)">
                <g id="Logo" transform="translate(248.000000, 161.001567)">
                    <g id="cnn-logo" transform="translate(247.720803, 4.998433)">
                        <path d="M23.3067112,0.0171642866 C23.3067112,0.00184679033 16.9737412,0.0171642866 16.9737412,0.0171642866 C7.59954219,0.0171642866 0,7.61670648 0,16.9909055 C0,26.3651046 7.59954219,33.9646468 16.9737412,33.9646468 L28.8811935,33.9546524 C31.8726679,33.9546524 34.2977209,31.5485019 34.2977209,28.5569188 L34.3040217,18.2042468 L42.5342971,31.1855532 C43.6473685,32.8701519 45.558036,33.9814852 47.7283405,33.9814852 C51.1640224,33.9814852 53.9494167,31.1961995 53.9494167,27.760409 L53.9475699,18.2041381 L62.1778453,31.1854446 C63.2909167,32.8700433 65.2015843,33.9814852 67.3718888,33.9814852 C70.8075706,33.9814852 73.592965,31.1960908 73.592965,27.7603004 L73.5911182,0.00184679033 L69.3563193,0.00184679033 L69.3563193,27.7606263 C69.3563193,28.8565334 68.4679045,29.7449482 67.3719974,29.7449482 C66.6870555,29.7449482 66.0831551,29.3980775 65.7266159,28.8701127 L51.0775491,5.79566258 C50.8912223,5.52463486 50.5501813,5.40643606 50.2360967,5.50403001 C49.9220121,5.60162396 49.7080147,5.89228709 49.7080998,6.2211848 L49.7127711,27.7607349 C49.7127711,28.856642 48.8243563,29.7450568 47.7284492,29.7450568 C47.0435072,29.7450568 46.4397154,29.3981861 46.0830676,28.8702214 L31.4340009,5.79566258 C31.2476266,5.52468809 30.9066029,5.40653118 30.5925323,5.50411302 C30.2784618,5.60169487 30.0644419,5.89230409 30.0644429,6.2211848 L30.0611838,28.5571361 C30.0611838,29.2088358 29.5330018,29.7369092 28.8813021,29.7369092 L16.9738499,29.7280011 C9.93942553,29.7278925 4.23675428,24.0252213 4.23675428,16.9909055 C4.23675428,9.95658982 9.93942553,4.25380993 16.9737412,4.25380993 L23.3067112,4.24913864 L23.3067112,0.0171642866 Z" id="Path"></path>
                        <path d="M23.9893718,24.2873568 C24.3225968,24.2873568 24.5927291,24.0172246 24.5927291,23.6839996 L24.5943586,6.22096753 C24.5942499,2.78539435 27.3795357,0 30.8152175,0 C32.9932351,0 34.9099862,1.11937221 36.0213194,2.81418255 L44.2230239,15.6802276 L44.2377982,6.22107616 C44.2377982,2.78539435 47.0229753,0 50.4587657,0 C52.6367833,0 54.5534258,1.11937221 55.6648677,2.81418255 L63.8664635,15.6802276 L63.8664635,0.00184679033 L68.1303764,0.00184679033 L68.122772,27.7606263 C68.1226785,28.0837693 67.9158552,28.370612 67.6092874,28.4727766 C67.3027196,28.5749412 66.9651706,28.4695122 66.7712474,28.2110258 L52.1041473,5.11158972 C51.7476081,4.58384222 51.1437077,4.23675428 50.4587657,4.23675428 C49.3628586,4.23675428 48.4744438,5.12516906 48.4744438,6.22107616 L48.4792238,27.7606263 C48.4790525,28.0837561 48.2722055,28.3705514 47.9656478,28.4727045 C47.65909,28.5748576 47.3215556,28.4694643 47.1275905,28.2110258 L32.4607077,5.11158972 C32.1040598,4.58384222 31.500268,4.23675428 30.8152175,4.23675428 C29.719419,4.23675428 28.8310042,5.12516906 28.8310042,6.22107616 L28.8399123,27.9312914 C28.8399123,28.2645164 28.56978,28.5346487 28.236555,28.5346487 L16.9737412,28.5323674 C10.6205653,28.5323674 5.47019294,23.3440815 5.47019294,16.9910142 C5.47019294,10.6378382 10.6205653,5.44944371 16.9737412,5.44944371 C16.9737412,5.44944371 23.3067112,5.42478363 23.3067112,5.44944371 L23.3067112,9.72889144 L16.9737412,9.72411151 C12.9604486,9.72411151 9.70694722,12.9776129 9.70694722,16.9910142 C9.70694722,21.0041982 12.9604486,24.2956131 16.9737412,24.2956131 L23.9893718,24.2873568 Z" id="Path"></path>
                    </g>
                </g>
            </g>
        </g>
    </g>
</svg>