<?xml version="1.0" encoding="UTF-8"?>
<svg width="100px" height="40px" viewBox="0 0 100 40" version="1.1" xmlns="http://www.w3.org/2000/svg" xmlns:xlink="http://www.w3.org/1999/xlink">
    <title>business-insider-1</title>
    <g id="1.0-home" stroke="none" stroke-width="1" fill="none" fill-rule="evenodd">
        <g id="home/1.-Home-CARD-OPTION-#1" transform="translate(-671.000000, -3311.000000)" fill="#47494A" fill-rule="nonzero">
            <g id="Featured-Section" transform="translate(0.000000, 3148.000000)">
                <g id="Logo" transform="translate(248.000000, 161.001567)">
                    <g id="business-insider-1" transform="translate(423.480535, 1.998686)">
                        <path d="M7.68684038,8.42753206 C7.22961081,8.10084924 6.72865503,7.94831301 5.87940608,7.90471318 C5.4873867,7.88297645 5.26976666,7.88297645 4.94308384,7.88297645 C4.85601055,7.88297645 4.81253709,7.92657628 4.81253709,8.0353863 L4.81253709,13.1962166 C4.81253709,14.6334946 4.87787365,15.0037772 5.57458637,15.2867338 C6.16248907,15.5263434 6.66331847,15.5480801 7.16414787,15.5480801 C8.14419632,15.5480801 9.79909439,15.0252612 9.79909439,12.7605973 C9.79909439,11.410519 9.34186482,9.58147435 7.68684038,8.42753206 L7.68684038,8.42753206 Z M4.81253709,6.68543433 C4.81253709,6.85970729 4.87787365,6.90318075 4.96494695,6.92491748 C5.16095664,6.96864369 5.48751308,6.99025404 5.98846886,6.99025404 C6.70704468,6.99025404 7.18613735,6.90330712 7.55616725,6.57662431 C8.12233322,6.11926836 8.44901604,5.33548235 8.44901604,4.26848698 C8.44901604,2.80934586 7.59976709,0.893101537 5.72699623,0.893101537 C5.42217651,0.893101537 5.22616682,0.893101537 5.0084204,0.936701371 C4.85588417,0.980301206 4.81241071,1.0673745 4.81241071,1.30685765 L4.81241071,6.68543433 L4.81253709,6.68543433 Z M2.1993273,6.31515167 C2.1993273,3.00522917 2.1993273,2.39546337 2.15572747,1.69862428 C2.11212763,0.9584381 1.93798105,0.609892177 1.21940523,0.457482321 C1.04525864,0.414008863 0.674975988,0.392145757 0.370156276,0.392145757 C0.130673127,0.392145757 0,0.348545923 0,0.196136067 C0,0.0437262108 0.152409856,0.000252752664 0.479092674,0 C1.63316134,0 3.00510279,0.0654629399 3.44059563,0.0654629399 C4.507591,0.0654629399 5.35696633,0 6.09727888,0.000252752664 C10.0387039,0.000252752664 10.735543,2.11238039 10.735543,3.26657542 C10.735543,5.05214662 9.7120211,6.11901561 8.5143526,7.07732733 C10.3000502,7.68684038 12.4775144,9.23318118 12.4775144,11.780928 C12.4775144,14.1110548 10.6700801,16.5280022 6.66331847,16.5280022 C6.40209859,16.5280022 5.77059606,16.4844023 5.13896716,16.4625392 C4.4857279,16.4190658 3.83248864,16.3972027 3.50580582,16.3972027 C3.26619629,16.3972027 2.78710362,16.3972027 2.26453749,16.4190658 C1.76370809,16.4190658 1.1976685,16.4625392 0.762049281,16.4625392 C0.478966297,16.4625392 0.326430065,16.3972027 0.326430065,16.2447928 C0.326430065,16.1359828 0.413629734,16.0705199 0.674975988,16.0705199 C1.00153243,16.0705199 1.26287868,16.0270464 1.45888837,15.9835729 C1.89438121,15.8963733 2.00331761,15.417407 2.0903909,14.7857781 C2.19920093,13.8713189 2.19920093,12.1508315 2.19920093,10.1475139 L2.19920093,6.31515167 M15.416396,7.81776626 C15.416396,5.00867316 15.4382591,4.48598065 15.3946592,3.89795158 C15.3510594,3.24471232 15.1769128,3.07056573 14.567147,2.89629277 C14.4147372,2.85256656 14.0880543,2.83095621 13.8268345,2.83095621 C13.6089617,2.83095621 13.500278,2.76549327 13.500278,2.63494652 C13.500278,2.50427339 13.6308248,2.46067356 13.9139078,2.46067356 C14.9374297,2.46067356 16.2221715,2.50427339 16.788211,2.50427339 C17.2674301,2.50427339 18.5521719,2.46067356 19.249011,2.46067356 C19.532094,2.46067356 19.6626407,2.50427339 19.6626407,2.63494652 C19.6626407,2.76549327 19.5538307,2.83095621 19.3579474,2.83095621 C19.1400746,2.83095621 19.0312646,2.85269294 18.7919078,2.89629277 C18.290952,2.98336606 18.1385421,3.24471232 18.0948159,3.89795158 C18.0513425,4.48585427 18.0513425,5.00867316 18.0513425,7.81776626 L18.0513425,10.4091129 C18.0513425,13.1092696 18.5739086,14.1545283 19.5102309,14.8948408 C20.3594798,15.5700696 21.2741917,15.6351534 21.9275573,15.6351534 C22.7548168,15.6351534 23.7348652,15.3956702 24.4969145,14.6552313 C25.5639099,13.6535725 25.6075097,12.0421479 25.6075097,10.1476403 L25.6075097,7.81776626 C25.6075097,5.00867316 25.585773,4.48598065 25.5639099,3.89795158 C25.5203101,3.26657542 25.3679002,3.07056573 24.7582608,2.89629277 C24.6058509,2.85256656 24.2791681,2.83095621 24.0612953,2.83095621 C23.8435489,2.83095621 23.7347389,2.76549327 23.7347389,2.63494652 C23.7347389,2.50427339 23.865412,2.46067356 24.1267583,2.46067356 C25.1066803,2.46067356 26.3914221,2.50427339 26.4131588,2.50427339 C26.631158,2.50427339 27.9158998,2.46067356 28.656086,2.46067356 C28.9174322,2.46067356 29.0482317,2.50427339 29.0482317,2.63494652 C29.0482317,2.76549327 28.9392953,2.83095621 28.7215489,2.83095621 C28.5038025,2.83095621 28.3948661,2.85269294 28.155383,2.89629277 C27.6326904,2.98336606 27.5022701,3.24471232 27.4585439,3.89795158 C27.4368071,4.48585427 27.414944,5.00867316 27.414944,7.81776626 L27.414944,9.79934714 C27.414944,11.8680013 27.1971976,14.0457183 25.585773,15.3739335 C24.2355683,16.5062654 22.7766799,16.7021488 21.5354116,16.7021488 C20.5336264,16.7021488 18.5521719,16.6586753 17.1584937,15.4392701 C16.1785716,14.5898948 15.4162696,13.218206 15.4162696,10.5397861 L15.4162696,7.81776626 M30.833171,16.2230561 C30.528225,16.0925093 30.4630148,16.0051833 30.4630148,15.5915536 C30.4630148,14.5897684 30.5499617,13.4358261 30.5716984,13.1310064 C30.5716984,12.8479234 30.6587717,12.6517873 30.8113079,12.6517873 C30.9855809,12.6517873 31.0073176,12.8260603 31.0073176,12.9567334 C31.0073176,13.1962166 31.0726542,13.5881096 31.1815906,13.9147924 C31.5953467,15.2866075 33.0324984,15.7440898 34.2302932,15.7440898 C35.8851913,15.7440898 36.8868501,14.6988311 36.8868501,13.3923526 C36.8868501,12.5865771 36.690714,11.780928 34.9923425,10.7791428 L33.8817473,10.1257772 C31.6170834,8.79756196 30.8767709,7.55616725 30.8767709,5.92313229 C30.8767709,3.65846843 33.0543615,2.19945368 35.7109183,2.19945368 C36.9520603,2.19945368 37.9322351,2.37372664 38.4329381,2.50427339 C38.6072111,2.54774685 38.694158,2.61308341 38.694158,2.74388292 C38.694158,2.98349244 38.6289478,3.50605857 38.6289478,4.96507332 C38.6289478,5.35696633 38.5417482,5.55284964 38.3893383,5.55284964 C38.2586652,5.55284964 38.193455,5.44403962 38.193455,5.2262932 C38.193455,5.05202024 38.1062553,4.48585427 37.6924992,4.0067616 C37.4094162,3.65846843 36.7999032,3.1359023 35.5583821,3.1359023 C34.1866934,3.1359023 32.9452987,3.85435174 32.9452987,5.1173568 C32.9452987,5.9449954 33.2501184,6.59810828 34.970353,7.55629363 L35.7543918,7.99166009 C38.2802755,9.38546466 39.0643143,10.8008796 39.0643143,12.4776407 C39.0643143,13.8493294 38.5414954,14.9601774 37.1479436,15.9399731 C36.2333581,16.5933387 34.970353,16.7018961 33.9469575,16.7018961 C32.836615,16.7018961 31.6605569,16.5934651 30.833171,16.2230561 M42.2869108,7.81776626 C42.2869108,5.00867316 42.2869108,4.48598065 42.2653004,3.89795158 C42.2217006,3.26657542 42.0256909,3.04870263 41.6119348,2.9180295 C41.3941883,2.85256656 41.1545788,2.83108258 40.9150957,2.83108258 C40.7192124,2.83108258 40.6101496,2.78748275 40.6101496,2.61320979 C40.6101496,2.50439977 40.7625594,2.46079993 41.0675055,2.46079993 C41.7862077,2.46079993 43.0925599,2.50439977 43.6369891,2.50439977 C44.1162082,2.50439977 45.3573501,2.46079993 46.097789,2.46079993 C46.3372722,2.46079993 46.4898084,2.50439977 46.4898084,2.61320979 C46.4898084,2.78748275 46.3809984,2.83108258 46.1848623,2.83108258 C45.988979,2.83108258 45.8365692,2.85269294 45.6188227,2.89641915 C45.0961302,2.98349244 44.9437204,3.24483869 44.9001205,3.89807795 C44.8566471,4.48598065 44.8566471,5.00879953 44.8566471,7.81789264 L44.8566471,11.0842153 C44.8566471,12.8697865 44.8566471,14.3506644 44.943594,15.1347031 C45.0089306,15.6354061 45.1397301,15.9184891 45.7057697,16.0055624 C45.9669895,16.0492886 46.4026087,16.0710254 46.6856917,16.0710254 C46.9034381,16.0710254 46.9905114,16.1798354 46.9905114,16.2671614 C46.9905114,16.3977082 46.8381016,16.4630447 46.6202288,16.4630447 C45.3573501,16.4630447 44.0507452,16.3977082 43.5280527,16.3977082 C43.0925599,16.3977082 41.7860813,16.4630447 41.0239057,16.4630447 C40.7842962,16.4630447 40.6537494,16.3977082 40.6537494,16.2671614 C40.6537494,16.1799618 40.719086,16.0710254 40.9585691,16.0710254 C41.2416521,16.0710254 41.4593985,16.0492886 41.6335451,16.0055624 C42.0255645,15.9186155 42.1345009,15.6572692 42.1997111,15.1129664 C42.286658,14.3507907 42.286658,12.8699129 42.286658,11.0843417 L42.286658,7.81776626 M51.4326395,13.9366555 C51.476113,15.3738071 51.7157225,15.8093 52.0858788,15.9400995 C52.4125616,16.0489095 52.7827179,16.0706462 53.0875376,16.0706462 C53.305284,16.0706462 53.4142204,16.1578459 53.4142204,16.2667823 C53.4142204,16.4191922 53.2399474,16.4626656 52.9787275,16.4626656 C51.7375856,16.4626656 50.8444841,16.397329 50.4961909,16.397329 C50.3220443,16.397329 49.4074588,16.4626656 48.4275367,16.4626656 C48.1661905,16.4626656 47.9920439,16.4410553 47.9920439,16.2667823 C47.9920439,16.1579723 48.122717,16.0706462 48.2968636,16.0706462 C48.5582098,16.0706462 48.906503,16.0489095 49.168102,15.9836993 C49.668805,15.8530262 49.7341416,15.3520704 49.7558783,13.7406458 L49.9301513,2.76561964 C49.9301513,2.39546337 50.060698,2.13411711 50.2568341,2.13411711 C50.4963173,2.13411711 50.7576635,2.4172001 51.08422,2.74388292 C51.3238295,2.98349244 54.1982591,5.92313229 56.9853628,8.6451521 C58.292094,9.92989389 60.8398409,12.5431037 61.1229239,12.8043236 L61.2099972,12.8043236 L61.0137347,4.57292757 C60.9922507,3.44059563 60.8179778,3.11391281 60.3608746,2.93976623 C60.0777916,2.83095621 59.6201829,2.83095621 59.358963,2.83095621 C59.1194799,2.83095621 59.0540169,2.74388292 59.0540169,2.63494652 C59.0540169,2.48253666 59.2500266,2.46067356 59.5331096,2.46067356 C60.5348948,2.46067356 61.5582903,2.50427339 61.9721728,2.50427339 C62.1899192,2.50427339 62.9083687,2.46067356 63.8448173,2.46067356 C64.1061636,2.46067356 64.2801838,2.48241028 64.2801838,2.63494652 C64.2801838,2.74375654 64.1713737,2.83095621 63.9536273,2.83095621 C63.7574913,2.83095621 63.6052078,2.83095621 63.3655983,2.89629277 C62.8429057,3.04870263 62.6906223,3.37538545 62.6687592,4.42064409 L62.4510127,16.0925093 C62.4510127,16.5061391 62.2986029,16.680412 62.1460667,16.680412 C61.8195102,16.680412 61.5582903,16.4844023 61.3621543,16.2882663 C60.1643594,15.1777974 57.7690224,12.8913969 55.7659575,10.9532894 C53.6754403,8.94984544 51.6502595,6.70679193 51.2798505,6.38023549 L51.2146403,6.38023549 L51.4326395,13.9366555 M67.6332006,7.81776626 C67.6332006,5.00867316 67.6332006,4.48598065 67.6112111,3.89795158 C67.5677377,3.26657542 67.3935911,3.07056573 66.7836989,2.89629277 C66.6314154,2.85256656 66.304859,2.83095621 66.021776,2.83095621 C65.8256399,2.83095621 65.6950932,2.76549327 65.6950932,2.63494652 C65.6950932,2.50427339 65.847503,2.46067356 66.130586,2.46067356 C67.1322448,2.46067356 68.3517764,2.50427339 68.8960793,2.50427339 C69.5057187,2.50427339 73.7519635,2.52588374 74.1222461,2.50427339 C74.4706657,2.48241028 74.7756117,2.4172001 74.9278952,2.39546337 C75.0368316,2.37372664 75.1456416,2.30839008 75.2327149,2.30839008 C75.3416513,2.30839008 75.3633881,2.39546337 75.3633881,2.48253666 C75.3633881,2.61320979 75.254578,2.83108258 75.2108518,3.68033153 C75.1892415,3.87634122 75.1455153,4.68211672 75.1021682,4.89973676 C75.0803051,4.98668368 75.0368316,5.20455647 74.8844218,5.20455647 C74.7537486,5.20455647 74.7317592,5.11748318 74.7317592,4.96507332 C74.7317592,4.8344002 74.7101488,4.50771738 74.6013388,4.28984458 C74.4486762,3.96328814 74.2963927,3.70206826 73.3382073,3.61486859 C73.0116509,3.57114238 70.7252503,3.5277953 70.3332309,3.5277953 C70.246284,3.5277953 70.2025578,3.59313186 70.2025578,3.70206826 L70.2025578,8.27486945 C70.2025578,8.38380585 70.2244209,8.47100552 70.3332309,8.47100552 C70.7687238,8.47100552 73.2512604,8.47100552 73.6867533,8.42753206 C74.1441092,8.38380585 74.4270658,8.34033239 74.6013388,8.14444908 C74.7537486,8.01364957 74.8190852,7.90483955 74.9062849,7.90483955 C74.9932318,7.90483955 75.0586947,7.99191284 75.0586947,8.10097562 C75.0586947,8.20978564 75.0148421,8.51460535 74.9062849,9.45105397 C74.8624323,9.82133662 74.8190852,10.5616492 74.8190852,10.6921959 C74.8190852,10.8446058 74.7972221,11.105952 74.6232019,11.105952 C74.4925288,11.105952 74.4486762,11.0404891 74.4486762,10.9535422 C74.4270658,10.7574061 74.4270658,10.5180493 74.383466,10.2783134 C74.274656,9.90815716 74.0349201,9.62507418 73.3164706,9.55986399 C72.9680511,9.51613778 70.7904605,9.47266432 70.3116206,9.47266432 C70.2244209,9.47266432 70.2025578,9.55986399 70.2025578,9.66880039 L70.2025578,11.1495519 C70.2025578,11.7810544 70.1809475,13.3488792 70.2025578,13.893182 C70.246284,15.1561871 70.833934,15.4392701 72.7940309,15.4392701 C73.2948603,15.4392701 74.1005094,15.4175333 74.6014652,15.1996606 C75.0804315,14.9819141 75.2981779,14.5900211 75.4287246,13.8279718 C75.4725772,13.6318358 75.5159243,13.5448889 75.6467238,13.5448889 C75.7991337,13.5448889 75.8209968,13.7844984 75.8209968,13.9802553 C75.8209968,14.3940114 75.6684605,15.6571429 75.5595241,16.0272991 C75.428851,16.5062654 75.2548308,16.5062654 74.5361286,16.5062654 C73.098977,16.5062654 71.9447819,16.4845287 71.008586,16.4410553 C70.0721374,16.4191922 69.3534352,16.397329 68.7873956,16.397329 C68.5693965,16.397329 68.1557667,16.4191922 67.6986635,16.4191922 C67.2413076,16.4410553 66.7622149,16.4626656 66.3701955,16.4626656 C66.1307124,16.4626656 66.0000393,16.397329 66.0000393,16.2667823 C66.0000393,16.1795826 66.0653758,16.0706462 66.3049854,16.0706462 C66.587942,16.0706462 66.8056884,16.0489095 66.9799613,16.0051833 C67.3719807,15.9182364 67.4806644,15.5699432 67.5460009,15.0252612 C67.6332006,14.2414752 67.6332006,12.7824605 67.6332006,11.0838362 L67.6332006,7.81776626 M78.2154491,16.2230561 C77.9106294,16.0925093 77.8451665,16.0051833 77.8451665,15.5915536 C77.8451665,14.5897684 77.9322398,13.4358261 77.9541029,13.1310064 C77.9541029,12.8479234 78.0410498,12.6517873 78.193586,12.6517873 C78.367859,12.6517873 78.3895957,12.8260603 78.3895957,12.9567334 C78.3895957,13.1962166 78.455185,13.5881096 78.563995,13.9147924 C78.9774984,15.2866075 80.4149028,15.7440898 81.6124449,15.7440898 C83.2674694,15.7440898 84.2690018,14.6988311 84.2690018,13.3923526 C84.2690018,12.5865771 84.0731185,11.780928 82.3746206,10.7791428 L81.2641517,10.1257772 C78.9994879,8.79756196 78.2589226,7.55616725 78.2589226,5.92313229 C78.2589226,3.65846843 80.4366395,2.19945368 83.0933228,2.19945368 C84.3344647,2.19945368 85.3143868,2.37372664 85.8152162,2.50427339 C85.9894892,2.54774685 86.0765625,2.61308341 86.0765625,2.74388292 C86.0765625,2.98349244 86.0112259,3.50605857 86.0112259,4.96507332 C86.0112259,5.35696633 85.9240262,5.55284964 85.7716164,5.55284964 C85.6410696,5.55284964 85.5757331,5.44403962 85.5757331,5.2262932 C85.5757331,5.05202024 85.4886598,4.48585427 85.0747773,4.0067616 C84.7918207,3.65846843 84.1820549,3.1359023 82.9407865,3.1359023 C81.5688451,3.1359023 80.3275768,3.85435174 80.3275768,5.1173568 C80.3275768,5.9449954 80.6323965,6.59810828 82.3527575,7.55629363 L83.1365435,7.99166009 C85.66268,9.38546466 86.446466,10.8008796 86.446466,12.4776407 C86.446466,13.8493294 85.9237735,14.9601774 84.5302217,15.9399731 C83.6156362,16.5933387 82.3527575,16.7018961 81.3291092,16.7018961 C80.2187667,16.7018961 79.0429613,16.5934651 78.2154491,16.2230561 M89.059423,16.2230561 C88.7547297,16.0925093 88.6892667,16.0051833 88.6892667,15.5915536 C88.6892667,14.5897684 88.7762137,13.4358261 88.7980768,13.1310064 C88.7980768,12.8479234 88.8851501,12.6517873 89.0376863,12.6517873 C89.2118329,12.6517873 89.2335696,12.8260603 89.2335696,12.9567334 C89.2335696,13.1962166 89.2990325,13.5881096 89.4078426,13.9147924 C89.8214723,15.2866075 91.2587503,15.7440898 92.4564188,15.7440898 C94.1114433,15.7440898 95.1131021,14.6988311 95.1131021,13.3923526 C95.1131021,12.5865771 94.9172188,11.780928 93.2187209,10.7791428 L92.1081256,10.1257772 C89.8433354,8.79756196 89.1030229,7.55616725 89.1030229,5.92313229 C89.1030229,3.65846843 91.2806134,2.19945368 93.9371703,2.19945368 C95.178565,2.19945368 96.1583607,2.37372664 96.6594429,2.50427339 C96.8334631,2.54774685 96.92041,2.61308341 96.92041,2.74388292 C96.92041,2.98349244 96.8550734,3.50605857 96.8550734,4.96507332 C96.8550734,5.35696633 96.7680001,5.55284964 96.6154639,5.55284964 C96.4847908,5.55284964 96.4195806,5.44403962 96.4195806,5.2262932 C96.4195806,5.05202024 96.3323809,4.48585427 95.9186248,4.0067616 C95.6355418,3.65846843 95.0260288,3.1359023 93.7846341,3.1359023 C92.412819,3.1359023 91.1715507,3.85435174 91.1715507,5.1173568 C91.1715507,5.9449954 91.476244,6.59810828 93.196605,7.55629363 L93.9805174,7.99166009 C96.5064011,9.38546466 97.2904399,10.8008796 97.2904399,12.4776407 C97.2904399,13.8493294 96.767621,14.9601774 95.3740692,15.9399731 C94.4596101,16.5933387 93.196605,16.7018961 92.1729567,16.7018961 C91.0627406,16.7018961 89.8868089,16.5934651 89.059423,16.2230561 M3.09179696,29.5759793 C3.09179696,26.2659304 3.09179696,25.656291 3.04819712,24.9595783 C3.00459729,24.219013 2.78685087,23.8489831 2.30788457,23.7400467 C2.06827505,23.6745837 1.78519206,23.652847 1.52397218,23.652847 C1.30609939,23.652847 1.17555264,23.6093735 1.17555264,23.4353533 C1.17555264,23.3045538 1.34969922,23.260954 1.69811877,23.260954 C2.52563099,23.260954 3.89744607,23.3264169 4.5289486,23.3264169 C5.07337784,23.3264169 6.35811963,23.260954 7.18550547,23.260954 C7.46858846,23.260954 7.64286142,23.3045538 7.64286142,23.4353533 C7.64286142,23.6093735 7.51218829,23.652847 7.29444187,23.652847 C7.07656907,23.652847 6.90242249,23.6747101 6.64107623,23.7185627 C6.05317354,23.82712 5.87890058,24.197529 5.83542712,24.9597047 C5.79182729,25.6565437 5.79182729,26.2660568 5.79182729,29.5761057 L5.79182729,33.4084679 C5.79182729,35.5207219 5.79182729,37.2412093 5.8787742,38.1774052 C5.94423714,38.7653079 6.096647,39.1572009 6.75001263,39.2444006 C7.05483234,39.287874 7.53392502,39.3313475 7.86048146,39.3313475 C8.10009098,39.3313475 8.20890101,39.3968104 8.20890101,39.5056204 C8.20890101,39.6580303 8.03475442,39.7233669 7.79527127,39.7233669 C6.35799325,39.7233669 4.98617817,39.6580303 4.3981491,39.6580303 C3.8973197,39.6580303 2.52550461,39.7233669 1.65439256,39.7233669 C1.37143595,39.7233669 1.21889972,39.6580303 1.21889972,39.5056204 C1.21889972,39.3968104 1.30597301,39.3313475 1.56731927,39.3313475 C1.89400208,39.3313475 2.15534834,39.2877476 2.35135803,39.2444006 C2.78672449,39.1572009 2.91739762,38.7870446 2.98286056,38.1555421 C3.09167058,37.2412093 3.09167058,35.5205956 3.09167058,33.4084679 L3.09167058,29.5759793 M14.1753804,37.1974831 C14.2189802,38.6346348 14.4584634,39.0701276 14.828746,39.2009271 C15.1553025,39.3097371 15.5255851,39.3314739 15.8304048,39.3314739 C16.0481512,39.3314739 16.1570876,39.4185471 16.1570876,39.5276099 C16.1570876,39.6800198 15.9829411,39.7234932 15.7215948,39.7234932 C14.4804528,39.7234932 13.5876041,39.6581567 13.2390581,39.6581567 C13.0649116,39.6581567 12.150326,39.7234932 11.170404,39.7234932 C10.9090577,39.7234932 10.7349111,39.7016301 10.7349111,39.5276099 C10.7349111,39.4186735 10.8655843,39.3314739 11.0397308,39.3314739 C11.3010771,39.3314739 11.6494966,39.3097371 11.9108429,39.2445269 C12.4116723,39.1138538 12.4770089,38.6131508 12.4987456,37.0015998 L12.6730186,26.0265736 C12.6730186,25.6564174 12.8035653,25.3951975 12.999575,25.3951975 C13.2391845,25.3951975 13.5004044,25.6781541 13.8270872,26.0047105 C14.0666967,26.2443201 16.9411264,29.1839599 19.7283564,31.9059797 C21.0349613,33.1907215 23.5827081,35.8038049 23.8657911,36.0651512 L23.952738,36.0651512 L23.7568547,27.8337552 C23.7349916,26.7014233 23.560845,26.3748668 23.1034891,26.2004675 C22.8204061,26.0919102 22.3631765,26.0919102 22.1017039,26.0919102 C21.8622208,26.0919102 21.7968842,26.0047105 21.7968842,25.8957741 C21.7968842,25.7433643 21.9930203,25.7215012 22.2759769,25.7215012 C23.2777621,25.7215012 24.3011576,25.7652274 24.7149137,25.7652274 C24.9327865,25.7652274 25.6512359,25.7215012 26.5878109,25.7215012 C26.8490308,25.7215012 27.0231774,25.7433643 27.0231774,25.8957741 C27.0231774,26.0045842 26.914241,26.0919102 26.6964946,26.0919102 C26.5003585,26.0919102 26.348075,26.0919102 26.1084655,26.1571204 C25.5858994,26.3096566 25.4334895,26.6363394 25.4116264,27.6814717 L25.1937536,39.353337 C25.1937536,39.7669667 25.0414701,39.9412397 24.8890603,39.9412397 C24.5623775,39.9412397 24.3011576,39.7453563 24.1050215,39.5490939 C22.9074794,38.4386251 20.512016,36.1522245 18.5086984,34.2141171 C16.4183075,32.2107994 14.3931268,29.9677459 14.0228441,29.6411895 L13.9575076,29.6411895 L14.1753804,37.1974831 M31.1596011,39.4840101 C30.8549078,39.353337 30.7894448,39.2660109 30.7894448,38.8523812 C30.7894448,37.8507224 30.8765181,36.6967801 30.8982549,36.391834 C30.8982549,36.1088774 30.9853282,35.9127413 31.1378644,35.9127413 C31.312011,35.9127413 31.3338741,36.0868879 31.3338741,36.217561 C31.3338741,36.4571706 31.3992106,36.8491899 31.5080207,37.1757464 C31.9216504,38.5475615 33.3589284,39.004791 34.5567233,39.004791 C36.2116214,39.004791 37.2132802,37.9596588 37.2132802,36.6530539 C37.2132802,35.8475311 37.0172705,35.0417556 35.3188989,34.0400968 L34.2081774,33.3868576 C31.9435135,32.0582632 31.2032009,30.8172476 31.2032009,29.1839599 C31.2032009,26.9192961 33.3806651,25.4602813 36.0373484,25.4602813 C37.2786167,25.4602813 38.2585388,25.6344279 38.7593682,25.7652274 C38.9336412,25.8088272 39.0207145,25.8740374 39.0207145,26.0047105 C39.0207145,26.2443201 38.9552515,26.7667598 38.9552515,28.2259009 C38.9552515,28.6179203 38.8683046,28.8136773 38.715642,28.8136773 C38.5850952,28.8136773 38.5196323,28.7048672 38.5196323,28.4871208 C38.5196323,28.3129742 38.4326854,27.7469347 38.0188029,27.2677156 C37.7357199,26.9192961 37.1260805,26.3967299 35.8848122,26.3967299 C34.5129971,26.3967299 33.2717287,27.1153057 33.2717287,28.3783108 C33.2717287,29.205823 33.5765485,29.8591887 35.2966567,30.8172476 L36.0806955,31.2527405 C38.6067056,32.6462923 39.3904916,34.0618336 39.3904916,35.7384684 C39.3904916,37.1104098 38.8679255,38.221005 37.4743737,39.2008007 C36.5597881,39.85404 35.2966567,39.9629765 34.2732612,39.9629765 C33.1632979,39.9629765 31.9872397,39.8541664 31.1596011,39.4840101 M44.4426382,31.0783411 C44.4426382,28.269248 44.4426382,27.7469347 44.4210279,27.1587792 C44.377428,26.527403 44.1814183,26.3095303 43.7676622,26.1788571 C43.5499158,26.1135206 43.3103063,26.0919102 43.0708231,26.0919102 C42.8746871,26.0919102 42.765877,26.048184 42.765877,25.8740374 C42.765877,25.7652274 42.9182869,25.7215012 43.223233,25.7215012 C43.9419352,25.7215012 45.2482873,25.7652274 45.7927166,25.7652274 C46.2719356,25.7652274 47.5129512,25.7215012 48.2535165,25.7215012 C48.4929997,25.7215012 48.6455359,25.7652274 48.6455359,25.8740374 C48.6455359,26.048184 48.5367259,26.0919102 48.3405898,26.0919102 C48.1447065,26.0919102 47.9922966,26.1136469 47.7745502,26.1571204 C47.2518577,26.2443201 47.0994478,26.5056663 47.055848,27.1589056 C47.0123745,27.7469347 47.0123745,28.2693744 47.0123745,31.0784675 L47.0123745,34.3450429 C47.0123745,36.1307405 47.0123745,37.611492 47.0993215,38.3954044 C47.164658,38.8963601 47.2954575,39.1793168 47.8614971,39.2662637 C48.122717,39.3099899 48.5583362,39.3317266 48.8414192,39.3317266 C49.0591656,39.3317266 49.1461125,39.4405366 49.1461125,39.5278627 C49.1461125,39.6584094 48.9938291,39.723746 48.7759563,39.723746 C47.5129512,39.723746 46.2064727,39.6584094 45.6837802,39.6584094 C45.2482873,39.6584094 43.9418088,39.723746 43.1796332,39.723746 C42.9400236,39.723746 42.8093505,39.6584094 42.8093505,39.5278627 C42.8093505,39.440663 42.8746871,39.3317266 43.1142966,39.3317266 C43.3973796,39.3317266 43.6149996,39.3099899 43.7892726,39.2662637 C44.181292,39.1793168 44.2902284,38.9179705 44.3554385,38.3736676 C44.4423855,37.6116184 44.4423855,36.1308669 44.4423855,34.3451693 L44.4423855,31.0783411 M56.7893531,33.1252586 C56.7893531,35.0852291 56.8110898,36.500644 56.8329529,36.8708003 C56.8545633,37.3281562 56.8985422,37.9813955 57.0506993,38.1774052 C57.2903089,38.5258247 58.0523581,38.9177177 59.5548463,38.9177177 C61.2968177,38.9177177 62.5816859,38.6130244 63.7358809,37.6547127 C64.9770229,36.6313172 65.3691686,34.9762927 65.3691686,33.0601748 C65.3691686,30.7084376 64.43272,29.1839599 63.5834711,28.4437737 C61.8195102,26.8758226 59.7291193,26.6799393 58.2266311,26.6799393 C57.834359,26.6799393 57.2029828,26.7234127 57.050573,26.810486 C56.8764264,26.8758226 56.8109634,26.9630223 56.8109634,27.1806423 C56.7892267,27.8122712 56.7892267,29.3366225 56.7892267,30.7953845 L56.7892267,33.1252586 L56.7893531,33.1252586 Z M54.2198695,31.0783411 C54.2198695,28.269248 54.2198695,27.7469347 54.19788,27.1587792 C54.1542802,26.527403 53.9801336,26.331267 53.3704942,26.156994 C53.2179579,26.1135206 52.8912751,26.0917838 52.6083185,26.0917838 C52.4123088,26.0917838 52.2817621,26.0263209 52.2817621,25.8956478 C52.2817621,25.765101 52.4341719,25.7213748 52.7172549,25.7213748 C53.7190401,25.7213748 54.9383189,25.765101 55.4828746,25.765101 C56.0706509,25.765101 57.4427187,25.7213748 58.5969138,25.7213748 C60.9921244,25.7213748 64.2148472,25.7213748 66.3053645,27.8336288 C67.2635498,28.7919405 68.1127988,30.3379022 68.1127988,32.5374823 C68.1127988,34.8676091 67.11114,36.6313172 66.0222815,37.6983125 C65.1512958,38.5691718 63.1259887,39.8757767 59.5983198,39.8757767 C58.9014807,39.8757767 58.0740949,39.8104402 57.3120456,39.7668403 C56.5498699,39.7013774 55.8529045,39.6580303 55.3739382,39.6580303 C55.1560654,39.6580303 54.7423093,39.6798934 54.2852061,39.6798934 C53.8279765,39.7015038 53.3487574,39.7233669 52.9566117,39.7233669 C52.7172549,39.7233669 52.5865818,39.6580303 52.5865818,39.5274835 C52.5865818,39.4402839 52.6519184,39.3313475 52.8912751,39.3313475 C53.1743581,39.3313475 53.3922309,39.3096108 53.5665039,39.2658845 C53.9585232,39.1789376 54.0673333,38.8306445 54.1326698,38.2860888 C54.2197431,37.5023028 54.2197431,36.0432881 54.2197431,34.3446638 L54.2197431,31.0783411 M73.0115245,31.0783411 C73.0115245,28.269248 73.0115245,27.7469347 72.9897878,27.1587792 C72.946188,26.527403 72.7721678,26.331267 72.1622756,26.156994 C72.0099921,26.1135206 71.6831829,26.0917838 71.4000999,26.0917838 C71.204343,26.0917838 71.0735435,26.0263209 71.0735435,25.8956478 C71.0735435,25.765101 71.2260797,25.7213748 71.5090363,25.7213748 C72.5108215,25.7213748 73.7301004,25.765101 74.274656,25.765101 C74.8842954,25.765101 79.1305401,25.7867114 79.5008228,25.765101 C79.8493687,25.7432379 80.154062,25.6780277 80.3064719,25.656291 C80.4155347,25.6343015 80.5242183,25.5690913 80.611418,25.5690913 C80.720228,25.5690913 80.7420911,25.656291 80.7420911,25.7433643 C80.7420911,25.8740374 80.6332811,26.0919102 80.5895549,26.9411592 C80.5679445,27.1370425 80.5240919,27.942818 80.4807449,28.160438 C80.4590081,28.2475113 80.4155347,28.4653841 80.2629984,28.4653841 C80.1324517,28.4653841 80.1104622,28.3783108 80.1104622,28.2257746 C80.1104622,28.0952278 80.0885991,27.768545 79.9799155,27.5506722 C79.8273792,27.2241158 79.6749694,26.9628959 78.7169104,26.8755698 C78.3902276,26.83197 76.103827,26.7886229 75.7118076,26.7886229 C75.6248607,26.7886229 75.5812609,26.8538331 75.5812609,26.9628959 L75.5812609,31.5358235 C75.5812609,31.6446335 75.6029976,31.7317068 75.7118076,31.7317068 C76.1473005,31.7317068 78.6298371,31.7317068 79.0654563,31.6882333 C79.5225595,31.6446335 79.8056425,31.60116 79.9799155,31.4052767 C80.1324517,31.2746036 80.1976619,31.1656672 80.2849879,31.1656672 C80.3719348,31.1656672 80.4372714,31.2527405 80.4372714,31.3615505 C80.4372714,31.4704869 80.3935452,31.7751802 80.2849879,32.7117552 C80.241009,33.0820379 80.1976619,33.8223504 80.1976619,33.9530236 C80.1976619,34.105307 80.1759252,34.3667797 80.0019049,34.3667797 C79.8711054,34.3667797 79.8273792,34.3014431 79.8273792,34.2142434 C79.8056425,34.0183601 79.8056425,33.778877 79.762169,33.5392674 C79.653359,33.1689848 79.4136231,32.8859018 78.6951737,32.8205652 C78.3468805,32.7769654 76.1691636,32.733492 75.6903236,32.733492 C75.6029976,32.733492 75.5812609,32.8205652 75.5812609,32.9295016 L75.5812609,34.4102531 C75.5812609,35.0417556 75.5595241,36.6095804 75.5812609,37.1540097 C75.6249871,38.4168883 76.212637,38.6999713 78.1727339,38.6999713 C78.6733106,38.6999713 79.4792124,38.6782346 79.9800418,38.4603618 C80.4591345,38.2428681 80.6771337,37.8507224 80.8074277,37.0886731 C80.8511539,36.8926634 80.894501,36.8057165 81.0254269,36.8057165 C81.1777103,36.8057165 81.1996998,37.0451996 81.1996998,37.2412093 C81.1996998,37.6545863 81.0471636,38.9177177 80.9381008,39.2877476 C80.8075541,39.7668403 80.6335339,39.7668403 79.914958,39.7668403 C78.47768,39.7668403 77.323485,39.74523 76.3872891,39.7013774 C75.4508405,39.679767 74.7320119,39.6579039 74.1660987,39.6579039 C73.9480995,39.6579039 73.5344698,39.679767 73.0773666,39.679767 C72.620137,39.7013774 72.1410444,39.7232405 71.7486458,39.7232405 C71.5094155,39.7232405 71.3788687,39.6579039 71.3788687,39.5273572 C71.3788687,39.4401575 71.4440789,39.3312211 71.6834357,39.3312211 C71.9665186,39.3312211 72.1845178,39.3094844 72.358538,39.2657582 C72.7505574,39.1788112 72.8593674,38.8305181 72.924704,38.2859625 C73.0117773,37.5023028 73.0117773,36.0432881 73.0117773,34.3446638 L73.0115245,31.0783411 M88.4721522,32.5157455 C88.4721522,32.7116288 88.5156257,32.7769654 88.6462988,32.842302 C89.0599285,32.9731015 89.6260945,33.0165749 90.1054399,33.0165749 C90.8674892,33.0165749 91.1287091,32.9512384 91.4552655,32.7116288 C92.043421,32.2979991 92.6966602,31.4922236 92.6966602,29.9678723 C92.6966602,27.3547889 90.9109627,26.6798129 89.7785043,26.6798129 C89.2996644,26.6798129 88.8423085,26.7014233 88.6462988,26.7451495 C88.5156257,26.7887493 88.4721522,26.8538331 88.4721522,27.0063693 L88.4721522,32.5157455 L88.4721522,32.5157455 Z M86.0332154,31.0783411 C86.0332154,28.269248 86.0332154,27.7469347 86.0113523,27.1587792 C85.9677524,26.527403 85.7936059,26.331267 85.1837137,26.156994 C85.0313038,26.1135206 84.7048738,26.0917838 84.4217908,26.0917838 C84.2257811,26.0917838 84.0952343,26.0263209 84.0952343,25.8956478 C84.0952343,25.765101 84.2476442,25.7213748 84.5306008,25.7213748 C85.5322596,25.7213748 86.7517912,25.765101 87.1436842,25.765101 C87.7969235,25.765101 89.5391476,25.7213748 90.1269239,25.7213748 C91.3464555,25.7213748 92.7401337,25.8304376 93.7635292,26.5054136 C94.3079585,26.8755698 95.1137339,27.8120185 95.1137339,29.0531604 C95.1137339,30.4251019 94.3296952,31.6445071 92.4570507,33.1469953 C94.1555486,35.2373862 95.505627,36.9144001 96.659822,38.0683424 C97.7268174,39.1352114 98.4017933,39.2224111 98.7067394,39.2876213 C98.9027491,39.3312211 99.0115591,39.3312211 99.163969,39.3312211 C99.3163789,39.3312211 99.4035785,39.4400311 99.4035785,39.5273572 C99.4035785,39.679767 99.2729054,39.7233669 99.0332959,39.7233669 L97.2042512,39.7233669 C96.1371295,39.7233669 95.6145633,39.6144305 95.1137339,39.3530842 C94.2860954,38.9394545 93.5677723,38.0683424 92.5006505,36.6311908 C91.7382221,35.6294056 90.9328258,34.3881373 90.6930899,34.1050543 C90.5842798,33.9962443 90.4750907,33.9745075 90.3445439,33.9745075 L88.6244357,33.9310341 C88.5373624,33.9310341 88.4720258,33.9745075 88.4720258,34.0834439 L88.4720258,34.3446638 C88.4720258,36.0648984 88.4936362,37.5021765 88.5808359,38.2860888 C88.6461724,38.8306445 88.7332457,39.1789376 89.3211484,39.2658845 C89.6042314,39.3096108 90.0179875,39.3313475 90.2574706,39.3313475 C90.4098805,39.3313475 90.4970802,39.4401575 90.4970802,39.5274835 C90.4970802,39.6580303 90.3445439,39.7233669 90.1051872,39.7233669 C88.9944656,39.7233669 87.4047777,39.6580303 87.1218211,39.6580303 C86.7516648,39.6580303 85.5321332,39.7233669 84.7699576,39.7233669 C84.5304744,39.7233669 84.3998013,39.6580303 84.3998013,39.5274835 C84.3998013,39.4402839 84.4651379,39.3313475 84.7047474,39.3313475 C84.987704,39.3313475 85.2055768,39.3096108 85.3797234,39.2658845 C85.7718691,39.1789376 85.8804264,38.8306445 85.945763,38.2860888 C86.0329626,37.5023028 86.0329626,36.0432881 86.0329626,34.3446638 L86.0329626,31.0783411" id="Shape"></path>
                    </g>
                </g>
            </g>
        </g>
    </g>
</svg>