<?xml version="1.0" encoding="UTF-8"?>
<svg width="146px" height="30px" viewBox="0 0 146 30" version="1.1" xmlns="http://www.w3.org/2000/svg" xmlns:xlink="http://www.w3.org/1999/xlink">
    <title>essence-communications-inc-vector-logo</title>
    <g id="1.0-home" stroke="none" stroke-width="1" fill="none" fill-rule="evenodd">
        <g id="home/1.-Home-CARD-OPTION-#1" transform="translate(-248.000000, -3316.000000)" fill="#47494A" fill-rule="nonzero">
            <g id="Featured-Section" transform="translate(0.000000, 3148.000000)">
                <g id="Logo" transform="translate(248.000000, 161.001567)">
                    <path d="M116.180049,36.9984328 C108.394161,36.9984328 104.160584,32.1079219 104.160584,21.5239803 C104.160584,10.8913769 109.270073,6.99843283 116.082725,6.99843283 C124.136253,6.99843283 125.888078,12.4972163 126.180049,16.2685058 L122.262774,16.2685058 C121.946472,13.6164377 120.608273,10.4290898 116.155718,10.4290898 C111.411192,10.4290898 108.126521,13.3487978 108.126521,21.4753185 C108.126521,29.9911336 111.313869,33.6164377 116.180049,33.6164377 C120.656934,33.6164377 121.946472,30.7697224 122.287105,27.3877272 L126.155718,27.3877272 C125.863747,32.1565837 123.600973,36.9984328 116.180049,36.9984328 M99.4890511,36.2928367 L86.2773723,13.1298197 L86.2773723,36.2928367 L82.6034063,36.2928367 L82.6034063,7.55804353 L87.5182482,7.55804353 L99.4160584,28.409625 L99.4160584,7.55804353 L103.017032,7.55804353 L103.017032,36.2928367 M62.7007299,36.2928367 L62.7007299,7.55804353 L81.2652068,7.55804353 L81.2652068,10.9400387 L66.4963504,10.9400387 L66.4963504,19.4558538 L80.6569343,19.4558538 L80.6569343,22.9351725 L66.4963504,22.9351725 L66.4963504,32.8865107 L81.2652068,32.8865107 L81.2652068,36.2685058 M30.0973236,36.9984328 C21.7761557,36.9984328 19.3673966,32.5215472 19.2457421,27.8013525 L23.2116788,27.8013525 C23.3333333,31.6942966 25.2068127,33.6894304 30.243309,33.6894304 C33.649635,33.6894304 36.0583942,31.8889438 36.0583942,28.5799413 C36.0583942,25.1979462 32.8710462,24.3463647 29.2944039,23.5191141 C24.6958637,22.4485545 19.3430657,21.2076786 19.3430657,14.75999 C19.3430657,9.30986835 24.1605839,7.02276373 29.026764,7.02276373 C37.323601,7.02276373 38.6618005,11.6456348 38.8321168,14.3950265 L34.9148418,14.3950265 C34.7688564,12.9351725 33.5523114,10.3560971 28.9781022,10.3560971 C26.107056,10.3560971 23.3333333,11.7429584 23.3333333,14.4923501 C23.3333333,18.3852941 27.0559611,18.9449048 30.9975669,19.9181409 C35.377129,20.9887005 40,22.3512309 40,28.4582868 C40.0486618,34.2490411 35.4987835,36.9984328 30.0973236,36.9984328 M0,36.2928367 L0,7.55804353 L18.5888078,7.55804353 L18.5888078,10.9400387 L3.81995134,10.9400387 L3.81995134,19.4558538 L17.9805353,19.4558538 L17.9805353,22.9351725 L3.81995134,22.9351725 L3.81995134,32.8865107 L18.5888078,32.8865107 L18.5888078,36.2685058 M127.396594,36.2928367 L127.396594,7.55804353 L145.961071,7.55804353 L145.961071,10.9400387 L131.192214,10.9400387 L131.192214,19.4558538 L145.352798,19.4558538 L145.352798,22.9351725 L131.192214,22.9351725 L131.192214,32.8865107 L145.961071,32.8865107 L145.961071,36.2685058 M51.6545012,36.9984328 C43.3333333,36.9984328 40.9245742,32.5215472 40.8029197,27.8013525 L44.7688564,27.8013525 C44.8905109,31.6942966 46.7639903,33.6894304 51.8004866,33.6894304 C55.2068127,33.6894304 57.6155718,31.8889438 57.6155718,28.5799413 C57.6155718,25.1979462 54.4282238,24.3463647 50.8515815,23.5191141 C46.2530414,22.4485545 40.9002433,21.2076786 40.9002433,14.75999 C40.9002433,9.30986835 45.7177616,7.02276373 50.5839416,7.02276373 C58.8807786,7.02276373 60.2189781,11.6456348 60.3892944,14.3950265 L56.4720195,14.3950265 C56.3260341,12.9351725 55.1094891,10.3560971 50.5352798,10.3560971 C47.6642336,10.3560971 44.8905109,11.7429584 44.8905109,14.4923501 C44.8905109,18.3852941 48.6131387,18.9449048 52.5547445,19.9181409 C56.9343066,20.9887005 61.5571776,22.3512309 61.5571776,28.4582868 C61.6058394,34.2490411 57.0559611,36.9984328 51.6545012,36.9984328" id="essence-communications-inc-vector-logo"></path>
                </g>
            </g>
        </g>
    </g>
</svg>