<?xml version="1.0" encoding="UTF-8"?>
<svg width="18px" height="14px" viewBox="0 0 18 14" version="1.1" xmlns="http://www.w3.org/2000/svg" xmlns:xlink="http://www.w3.org/1999/xlink">
    <title>001-youtube</title>
    <g id="2.2-dashboard/send-money" stroke="none" stroke-width="1" fill="none" fill-rule="evenodd">
        <g id="dashboard/send-money-&amp;-pay/send-money/D---1.1-Capway-Recent-Transfer" transform="translate(-339.000000, -1702.000000)" fill="#9ED2EA" fill-rule="nonzero">
            <g id="footer-with-text" transform="translate(0.000000, 1591.000000)">
                <g id="Group-9" transform="translate(247.000000, 51.000000)">
                    <g id="001-youtube" transform="translate(92.000000, 60.000000)">
                        <path d="M17.629062,2.89001046 C17.4216406,2.11888184 16.8136585,1.51100965 16.0426398,1.30336853 C14.6340858,0.917969 8.99976009,0.917969 8.99976009,0.917969 C8.99976009,0.917969 3.36565408,0.917969 1.95710011,1.28875672 C1.20091284,1.49617813 0.578099303,2.1189917 0.370677893,2.89001046 C0,4.29845456 0,7.21938308 0,7.21938308 C0,7.21938308 0,10.1550332 0.370677893,11.5487557 C0.578319015,12.3197745 1.18608132,12.9276466 1.95720997,13.1352878 C3.38048556,13.5207972 8.99997981,13.5207972 8.99997981,13.5207972 C8.99997981,13.5207972 14.6340858,13.5207972 16.0426398,13.1500094 C16.8137684,12.9424781 17.4216406,12.334606 17.6292817,11.5635872 C17.9999254,10.1550332 17.9999254,7.23421459 17.9999254,7.23421459 C17.9999254,7.23421459 18.0146813,4.29845456 17.629062,2.89001046 L17.629062,2.89001046 Z M7.20591646,9.91783892 L7.20591646,4.52092723 L11.8911354,7.21938308 L7.20591646,9.91783892 Z" id="Shape"></path>
                    </g>
                </g>
            </g>
        </g>
    </g>
</svg>