<?xml version="1.0" encoding="UTF-8"?>
<svg width="120px" height="120px" viewBox="0 0 120 120" version="1.1" xmlns="http://www.w3.org/2000/svg" xmlns:xlink="http://www.w3.org/1999/xlink">
    <title>1</title>
    <defs>
        <linearGradient x1="0%" y1="0%" x2="100%" y2="100%" id="linearGradient-1">
            <stop stop-color="#6ED94A" offset="0%"></stop>
            <stop stop-color="#27AAE2" offset="100%"></stop>
        </linearGradient>
    </defs>
    <g id="1" stroke="none" stroke-width="1" fill="none" fill-rule="evenodd">
        <rect fill="#FFFFFF" x="0" y="0" width="120" height="120"></rect>
        <rect id="Rectangle" fill="url(#linearGradient-1)" x="0" y="0" width="120" height="120"></rect>
        <path d="M81.5512943,48.3515436 L86.250275,48.3515436 C86.3327711,48.3515436 86.4185671,48.3548434 86.5010633,48.3482437 C86.6462565,48.3317445 86.6759551,48.2888465 86.636357,48.150253 C86.6231576,48.1139547 86.6033585,48.0743565 86.5868593,48.0347584 C86.2733739,47.3285913 85.9433893,46.629024 85.5771064,45.9459559 C84.3363643,43.629464 82.8052358,41.5307619 80.9771211,39.6465498 C79.6670822,38.2969128 78.2382489,37.0891692 76.6840214,36.0299186 C75.0373983,34.907971 73.2950796,33.9741145 71.4471658,33.2283493 C69.1537728,32.3076923 66.7811835,31.6906211 64.3227983,31.413434 C62.9335631,31.2550414 61.5377282,31.1890445 60.1352937,31.2385422 C58.5975654,31.2946396 57.0763364,31.4629317 55.5716067,31.7599179 C53.7401921,32.1229009 51.9681748,32.6706754 50.2522549,33.3900418 C48.5693334,34.0962088 46.9788077,34.970668 45.470778,35.9903205 C44.7547114,36.4786977 44.0584439,36.9967735 43.391875,37.5511476 C42.5339151,38.2639144 41.7155533,39.0228789 40.9433893,39.8313412 C39.814842,41.0159859 38.7951896,42.2930263 37.8877319,43.6525629 C36.8647796,45.1902911 36.00022,46.8138154 35.3072523,48.5264354 C34.7264794,49.9684681 34.2612011,51.4434993 33.9246169,52.9581286 C33.4560387,55.0700301 33.2448486,57.2050304 33.2679475,59.3598299 C33.277847,60.2936863 33.343844,61.2242429 33.4461392,62.1514996 C33.6408301,63.8971181 33.9972135,65.6064384 34.521889,67.2794603 C35.2676542,69.665249 36.3137054,71.9058444 37.6666422,74.0078463 C38.7522916,75.6874679 40.0029332,77.2317958 41.4053677,78.6540295 C42.0455379,79.2974995 42.7187065,79.907971 43.4248735,80.4821442 C44.4445259,81.3137054 45.5169759,82.0792696 46.6422234,82.7656376 C49.3843954,84.42876 52.3245582,85.5771064 55.4660116,86.2205764 C56.7826501,86.4911637 58.1124881,86.656156 59.4522256,86.7386522 C60.2936863,86.78485 61.135147,86.7914497 61.9766078,86.765051 C63.0589572,86.7254528 64.1380069,86.636357 65.2104568,86.4746645 C67.7117401,86.0951822 70.1206277,85.392315 72.4305199,84.3528635 C73.8494537,83.7159933 75.1990907,82.9636284 76.4893305,82.1023686 C77.614578,81.3500037 78.6771284,80.5217423 79.6769817,79.6109848 C80.7461318,78.6375302 81.7459852,77.6013786 82.650143,76.4761311 C83.6532962,75.235389 84.5475544,73.9220503 85.3230183,72.5262154 C85.6233042,71.9883405 85.9103908,71.443866 86.1743785,70.886192 C86.2700741,70.6849014 86.2535748,70.6618024 86.0291853,70.6552028 C85.9697881,70.6519029 85.9103908,70.6552028 85.8542935,70.6552028 C85.1877246,70.6552028 84.5211557,70.6552028 83.8545868,70.6552028 C81.2708074,70.6552028 78.6870279,70.6585026 76.1032485,70.6519029 C75.8326611,70.6519029 75.6346704,70.7178998 75.4630784,70.9422894 C75.2221896,71.2590746 74.9483024,71.5527609 74.6744152,71.8464472 C73.6613625,72.9254968 72.5295153,73.8692528 71.292073,74.6810149 C69.9193371,75.578573 68.4542055,76.2979394 66.8933783,76.8028159 C64.8045758,77.4792843 62.6662756,77.7993694 60.4685781,77.7201731 C59.1288407,77.6706754 57.8122021,77.4990834 56.5153626,77.1789983 C55.0700301,76.8193151 53.6873946,76.2913397 52.3674562,75.5983721 C50.8759258,74.8163086 49.5130894,73.8494537 48.278947,72.7011073 C47.120701,71.6253575 46.1208477,70.4176138 45.2628877,69.0811762 C44.1442399,67.3322578 43.3357777,65.4480458 42.8474005,63.4318398 C42.4514189,61.7984161 42.2798269,60.1385935 42.3293246,58.4523722 C42.3689228,57.1027352 42.5471145,55.7761971 42.8704994,54.4727579 C43.606365,51.5259955 44.9857007,48.9092176 46.992007,46.629024 C48.6584293,44.7283127 50.6317372,43.2334824 52.8987314,42.1313339 C54.3539635,41.4251668 55.8784923,40.9235902 57.4657183,40.6134047 C58.6569627,40.3824155 59.8581066,40.2669209 61.0658503,40.263621 C61.9898071,40.263621 62.913764,40.3362176 63.8278214,40.4748112 C66.1806116,40.8311945 68.3849087,41.6033585 70.4407128,42.7913031 C71.7375522,43.543668 72.922197,44.4445259 74.0045465,45.4806776 C74.4764244,45.9294566 74.915304,46.4079343 75.3376842,46.9029112 C75.6808682,47.2988927 76.0009533,47.7179732 76.3045391,48.1469531 C76.4035345,48.2855467 76.5256288,48.3614431 76.7005206,48.3515436 C76.7830168,48.3449439 76.8688128,48.3515436 76.9513089,48.3515436 L81.5512943,48.3515436 Z M58.049791,15 L62.0492044,15 C62.3758891,15.0791963 62.7124734,15.0692968 63.042458,15.0890958 C64.1248075,15.1517929 65.2005573,15.2771871 66.2730073,15.4223803 C67.7216397,15.6170712 69.150473,15.8942583 70.5694068,16.2308426 C71.9256435,16.5542275 73.2620811,16.9403095 74.5787197,17.3890885 C76.1329471,17.9203637 77.6541761,18.5341351 79.1424067,19.2370023 C80.9243235,20.0751632 82.6435433,21.0255188 84.300066,22.0880692 C86.6594559,23.5960988 88.8571533,25.3087189 90.8931583,27.2292293 C92.2658943,28.5194691 93.556134,29.892205 94.7539781,31.3474371 C95.6218376,32.4033878 96.4401995,33.4956369 97.2189631,34.6208844 C98.2881132,36.1751118 99.2483684,37.7953362 100.109628,39.471658 C100.868593,40.9433893 101.535162,42.4613185 102.129134,44.0155459 C102.700007,45.5103762 103.185085,47.0316052 103.594266,48.579233 C104.019946,50.1928577 104.35653,51.8262814 104.584219,53.4762044 C104.762411,54.7400455 104.934003,56.0038865 104.960402,57.2809269 C104.960402,57.3733226 104.980201,57.4624184 105,57.5515143 L105,62.4484857 C104.980201,62.5375816 104.960402,62.6266774 104.960402,62.7190731 C104.953802,63.7486251 104.811909,64.7649776 104.689814,65.7813302 C104.468725,67.6358437 104.102442,69.4672582 103.640463,71.2755738 C103.218083,72.922197 102.693408,74.5424214 102.082936,76.1296473 C101.112781,78.6573293 99.9248368,81.0761164 98.5191024,83.3860087 C96.7338858,86.3261714 94.628584,89.0188458 92.2328958,91.4838308 C91.3848354,92.3582899 90.4971768,93.1898511 89.5798196,93.985114 C87.9892938,95.3644497 86.3162719,96.6282907 84.5541541,97.7766371 C83.293613,98.5949989 81.9967735,99.3473638 80.6669355,100.037032 C79.1655056,100.819095 77.6178778,101.502163 76.0372516,102.106035 C73.671262,103.006893 71.2458752,103.693261 68.764391,104.191538 C68.0549241,104.333431 67.3388575,104.442326 66.6227909,104.554521 C65.5338418,104.722813 64.4382929,104.825108 63.342744,104.910904 C62.9962602,104.937303 62.6464765,104.927403 62.2999927,105 L57.7990027,105 C57.4822175,104.924104 57.1555327,104.940603 56.8321478,104.917504 C55.9180905,104.854807 55.007333,104.765711 54.0998753,104.646916 C52.4037545,104.422527 50.7274327,104.109042 49.0676102,103.689961 C46.6818215,103.082789 44.3554301,102.300726 42.0983354,101.314072 C40.6167046,100.667302 39.171372,99.9446359 37.7656376,99.1460732 C35.9309232,98.100022 34.1820048,96.9285767 32.5122828,95.6383369 C31.3144387,94.7077803 30.1594926,93.7244262 29.0606438,92.6816749 C27.8891985,91.5663269 26.7738506,90.3981814 25.7277994,89.1607392 C24.6124514,87.8375009 23.5598005,86.4614651 22.5962455,85.0194324 C21.2763071,83.0494244 20.1279607,80.9837208 19.1314072,78.8322212 C18.1447532,76.6972208 17.3395908,74.4929237 16.6961208,72.2292293 C16.2671409,70.7310992 15.9272567,69.2098702 15.6698687,67.672142 C15.4883772,66.6128914 15.3365843,65.550341 15.2375889,64.4811909 C15.1748918,63.8014226 15.1187945,63.1216543 15.085796,62.4385862 C15.0791963,62.2867933 15.0626971,62.1383002 15,61.9997067 L15,58.0002933 C15.0659969,57.8715993 15.0824962,57.7330058 15.0890958,57.5878126 C15.1319938,56.4988634 15.2276894,55.4099142 15.3662829,54.3308646 C15.6731686,51.9813742 16.1450466,49.6615825 16.8116155,47.3879886 C17.4946836,45.0549974 18.3559434,42.7913031 19.4052944,40.6002053 C20.2863533,38.7588913 21.2895065,36.9802743 22.4180538,35.2775537 C24.3583633,32.3373909 26.6022586,29.6546161 29.1695388,27.2424287 C30.4168805,26.0709834 31.7203197,24.9721346 33.086456,23.9458825 C35.4029479,22.2134634 37.8613331,20.7186331 40.4649116,19.458092 C42.4778177,18.4846374 44.5534208,17.6662756 46.6884212,17.0030065 C48.5264354,16.4288333 50.3974481,15.9767544 52.2981594,15.6533695 C54.1196744,15.3398841 55.9576886,15.128694 57.8056024,15.042898 C57.8913984,15.0395982 57.9705947,15.0329985 58.049791,15 L58.049791,15 Z" id="Fill-1" fill="#FFFFFF"></path>
    </g>
</svg>