<?xml version="1.0" encoding="UTF-8"?>
<svg width="378px" height="99px" viewBox="0 0 378 99" version="1.1" xmlns="http://www.w3.org/2000/svg" xmlns:xlink="http://www.w3.org/1999/xlink">
    <title>Forbes</title>
    <g id="1.0-home" stroke="none" stroke-width="1" fill="none" fill-rule="evenodd">
        <g id="home/1.-Home-CARD-OPTION-#1" transform="translate(-576.000000, -3531.000000)" fill="#47494A" fill-rule="nonzero">
            <g id="Forbes" transform="translate(576.000000, 3531.000000)">
                <path d="M36.4911613,9.22851782 L44.7692587,9.22851782 C49.8105741,8.48531947 54.9590188,9.138748 59.655311,11.1178207 C65.5471381,14.6650348 69.8206326,20.3756904 71.5641529,27.031564 C72.798606,30.5195078 72.798606,30.5195078 75.7758164,29.2841944 L78.0994929,29.2841944 L78.0994929,1.67130638 L0.183716542,1.67130638 L0.183716542,6.53989452 L3.37877168,6.53989452 C6.19093605,6.52040531 8.86071262,7.77607476 10.6402606,9.95517277 C13.6174711,14.7510954 14.1257753,20.128342 14.1257753,48.1045575 C14.1257753,77.8247448 13.4722413,85.0912943 10.6402606,88.7972345 C9.22391014,90.727328 7.00447344,91.9047168 4.6132248,91.9945163 C0.183716542,92.7938367 0.183716542,92.7211712 0.183716542,94.6831396 C-0.0612388475,95.3392019 -0.0612388475,96.0617111 0.183716542,96.7177734 L49.3439967,96.7177734 C50.0038276,95.4160747 50.0038276,93.8775389 49.3439967,92.5758402 C48.153317,92.2443327 46.9397552,92.0014512 45.7132522,91.8491853 C44.3864127,91.6912905 43.0748815,91.4239406 41.7920482,91.0498648 C38.0542973,88.3191913 36.0381386,83.8142203 36.4911613,79.2053892 C35.7650124,74.4094666 35.4019379,65.6169417 35.4019379,58.3503922 L35.4019379,52.6098181 L38.3065335,52.6098181 C41.9253264,52.4990226 45.5420179,52.8902887 49.0535371,53.7724661 C52.4595617,55.878706 54.7492172,59.3955101 55.2984176,63.3643114 L55.9519516,65.6169417 L60.3814599,65.6169417 L60.3814599,33.4261276 L56.3150261,33.4261276 L55.6614921,36.5507438 C55.1039084,40.6159 52.6518764,44.1751723 49.0535371,46.1425891 C47.3351397,46.6543389 45.5247266,46.7784263 43.7526502,46.5059166 L35.4019379,46.5059166 L35.4019379,38.6580432 C35.4019379,30.5195078 35.8376273,13.370451 36.1280868,10.6818277 L36.4911613,9.22851782 Z M376.328844,66.8522551 C372.896492,61.3239489 367.542894,57.2606609 361.297562,55.4437724 C356.509769,53.9461312 352.084039,51.4719333 348.299497,48.177223 C346.570399,46.5036125 345.78179,44.0817109 346.193665,41.7099939 C346.199274,39.418766 347.113361,37.2234278 348.735186,35.6060924 C350.974893,33.2586624 354.324727,32.3368161 357.448973,33.2081311 C363.916238,35.0525754 368.851447,40.2981457 370.301808,46.8692441 C371.463646,50.1391913 371.608876,50.1391913 373.714708,49.2672054 L375.021776,48.7585469 L375.021776,30.6648388 L374.077782,30.2288458 C366.928867,27.7162867 359.345615,26.6781155 351.785011,27.176895 C345.27407,27.3419804 339.059204,29.9333125 334.357438,34.4434445 C330.041164,38.4867592 327.729162,44.2309031 328.039942,50.1391913 C328.080712,54.6017508 329.850991,58.8742233 332.977755,62.0563325 C336.433183,65.4570711 340.673129,67.9528951 345.322286,69.3228819 C356.577594,73.7554771 359.845264,76.5894314 359.845264,81.7486815 C359.944666,86.2298069 356.929548,90.1823642 352.583775,91.2678613 C350.048282,91.8252772 347.42209,91.8252772 344.886597,91.2678613 C338.151191,88.6518684 333.093474,82.9410551 331.307612,75.9354419 L330.363619,73.6101461 L329.056551,73.6101461 C328.431895,73.656587 327.818856,73.8038188 327.241179,74.0461391 L326.51503,74.0461391 L326.51503,94.6831396 L327.749483,94.6831396 C332.655272,96.3162429 337.716916,97.4364251 342.85338,98.0257523 L350.114869,98.0257523 C353.264027,98.2570229 356.429693,97.9623371 359.482189,97.1537664 C367.367827,95.6975761 373.890437,90.1660879 376.619303,82.6206675 C377.485857,80.5495573 377.930241,78.3260888 377.926371,76.0807729 C378.212496,72.9176078 377.661528,69.7348012 376.328844,66.8522551 L376.328844,66.8522551 Z M307.925618,29.2841944 C299.124518,25.5864723 289.164553,25.8244091 280.549805,29.9381838 C272.453734,33.9010883 266.412345,41.1082874 263.920995,49.7758639 C262.35031,54.4514909 261.684895,59.3839272 261.960393,64.3089628 C261.908384,66.9885989 262.127343,69.6666285 262.613927,72.3021672 C265.015524,85.5739012 275.413533,95.9501731 288.682672,98.3164143 C292.901864,98.8483529 297.171086,98.8483529 301.390278,98.3164143 C305.768477,97.5442077 309.95863,95.9409738 313.734809,93.5931571 C316.858355,91.8408547 319.502074,89.3450424 321.431987,86.3266077 C321.181729,85.3696311 320.552366,84.556137 319.68923,84.0739773 C318.860449,84.3742951 318.078175,84.790168 317.365554,85.3092908 C313.753777,87.6912809 309.488881,88.8852678 305.166252,88.724569 C299.356189,89.1175866 293.677288,86.8764592 289.699281,82.6206675 C288.179705,81.208247 286.92542,79.5347008 285.995921,77.6794138 C283.739449,73.1620136 282.523599,68.1958987 282.437792,63.1463149 L282.437792,60.3123606 L322.666441,60.3123606 L322.666441,58.8590507 C322.755259,57.4070997 322.755259,55.951072 322.666441,54.499121 C322.637062,44.0542593 317.00964,34.4282677 307.925618,29.2841944 Z M287.666064,54.4264555 L282.583022,54.4264555 L282.583022,50.1391913 C284.253164,39.1667016 288.392213,32.6268071 293.475255,32.6268071 C298.558297,32.6268071 300.736744,39.0940361 301.680737,50.9385118 L301.680737,54.2811245 L297.323844,54.2811245 L287.666064,54.4264555 Z M183.245853,26.886233 C180.736724,26.7888559 178.242392,27.3130306 175.984364,28.4122084 C171.07656,30.7972862 167.112473,34.7641356 164.729056,39.6753601 L163.785062,41.419332 L163.785062,26.886233 L163.421988,26.886233 C162.550609,26.886233 135.6831,32.2634796 134.811722,32.6268071 C133.940343,32.9901346 134.230802,33.0628001 134.230802,34.370779 C134.230802,35.6787579 134.230802,35.8967544 134.811722,35.9694199 L137.643702,36.5507438 C139.25085,36.5901934 140.750507,37.3673426 141.710136,38.6580432 C143.525508,41.0560045 143.888583,45.2706032 143.888583,63.2189804 C144.247254,71.2990956 143.907118,79.3951145 142.871974,87.4165901 C142.37256,89.8954176 140.364027,91.7888324 137.861547,92.1398473 L135.392641,92.6485057 L134.448647,92.6485057 L134.448647,94.6831396 C134.185234,95.3608433 134.185234,96.1127352 134.448647,96.7904389 L175.04037,96.7904389 L175.04037,94.6831396 C175.181201,93.987775 175.181201,93.2712048 175.04037,92.5758402 C172.596377,92.4805219 170.165994,92.164352 167.778881,91.6311888 C165.117942,90.2383626 163.588256,87.3501517 163.930292,84.3646393 C163.349373,80.1500406 163.058914,67.7969065 163.204143,58.3503922 C163.349373,48.9038779 163.204143,48.322554 164.002907,47.6685645 C166.432775,45.8042096 169.439591,44.8526736 172.498849,44.9799412 C175.382507,45.0428699 178.213772,45.7636059 180.776947,47.0872406 C181.665499,47.5810077 182.618739,47.9478941 183.608927,48.177223 C183.608927,48.177223 190.870416,30.5921733 190.870416,29.7928528 C188.982549,27.5975718 186.114817,26.5043412 183.245853,26.886233 L183.245853,26.886233 Z M134.303417,57.4057408 C133.789184,46.8699862 128.216633,37.233041 119.34475,31.5368247 C108.807165,25.8480495 96.1978972,25.497548 85.3609819,30.5921733 C77.8053382,34.5791841 72.1005559,41.3567048 69.4583211,49.4852019 C66.7292088,58.585915 66.7292088,68.2880387 69.4583211,77.3887518 C70.8890287,82.3625006 73.5631566,86.8891778 77.2281142,90.5412064 C81.7926388,94.998184 87.6783324,97.8538423 94.0021537,98.6797418 C98.0615031,99.0194382 102.142106,99.0194382 106.201455,98.6797418 C107.695239,98.4523094 109.174311,98.1368775 110.630963,97.7350903 C122.696987,94.3574503 131.724314,84.3043636 133.795113,71.9388397 C134.520046,67.1299278 134.690598,62.2536038 134.303417,57.4057408 Z M104.095623,93.7384881 C96.8341344,95.918453 91.3880177,88.8699 89.5726399,74.0461391 C88.9059714,66.2852418 88.9059714,58.4814125 89.5726399,50.7205153 C91.0249432,38.8033742 94.7283026,32.7721381 100.464879,32.7721381 C102.813308,32.6264951 105.086687,33.6285622 106.56453,35.4607614 C111.429727,40.3293495 113.826019,49.9938603 113.826019,64.5269593 C114.430211,72.7518641 113.138335,81.0057423 110.050044,88.6519035 C108.686396,90.881901 106.576487,92.5555559 104.095623,93.3751607 L104.095623,93.7384881 L104.095623,93.7384881 Z M234.802424,28.3395429 C232.75345,28.0756972 230.679133,28.0756972 228.630159,28.3395429 C224.696982,28.3361934 220.80902,29.1787592 217.229621,30.8101697 L214.97856,31.7548212 L214.97856,15.9864088 C215.371959,10.6648767 215.371959,5.32153211 214.97856,0 C214.107181,0 186.368293,5.30458111 185.932604,5.5225776 C185.71844,6.05906857 185.71844,6.657393 185.932604,7.19388397 C185.932604,8.71985936 185.932604,8.64719387 189.200274,9.37384881 C190.117735,9.57974358 190.998991,9.92269286 191.81441,10.3911657 C193.231832,11.7250087 194.175229,13.4855425 194.501161,15.4050849 C195.327945,20.9350939 195.595553,26.5344216 195.299924,32.1181486 L195.299924,95.918453 L197.260526,96.3544459 C200.165122,97.0084354 208.370605,98.3890798 211.057355,98.6797418 C216.422386,99.1067527 221.812831,99.1067527 227.177861,98.6797418 C239.31378,97.4392843 249.767099,89.5798463 254.33583,78.2607378 C255.672305,74.6959887 256.598078,70.9903174 257.095195,67.2155826 C257.527434,62.1025192 257.356826,56.9563163 256.586891,51.8831632 C254.991052,40.2339812 246.286528,30.8265433 234.802424,28.3395429 L234.802424,28.3395429 Z M215.777323,92.5031747 C215.777323,91.5585233 215.051174,59.7310366 215.196404,47.0145751 L215.196404,37.0594023 L217.302236,36.5507438 C218.723074,36.347031 220.165676,36.347031 221.586514,36.5507438 C223.157846,36.3908597 224.738427,36.7480137 226.088638,37.5680607 C231.582931,41.3626227 235.035251,47.4686498 235.455958,54.1357935 C235.984951,59.427168 235.984951,64.7581624 235.455958,70.0495369 C235.021338,77.7401107 232.060145,85.0716149 227.032631,90.9045338 C225.605686,92.2608536 223.81363,93.1701347 221.876974,93.5204917 C220.411471,93.7755503 218.912969,93.7755503 217.447466,93.5204917 C216.067783,93.5204917 216.067783,93.0844987 216.067783,92.5031747 L216.067783,92.5031747 L215.777323,92.5031747 Z" id="Shape"></path>
            </g>
        </g>
    </g>
</svg>