<?xml version="1.0" encoding="UTF-8"?>
<svg width="176px" height="30px" viewBox="0 0 176 30" version="1.1" xmlns="http://www.w3.org/2000/svg" xmlns:xlink="http://www.w3.org/1999/xlink">
    <title>logo/white</title>
    <defs>
        <path d="M15.1184791,16 C6.76850997,16 0,22.648 0,30.8473333 L0,30.8473333 C0,39.0486667 6.76850997,45.696 15.1184791,45.696 L15.1184791,45.696 C21.098287,45.696 26.2677661,42.2853333 28.7197036,37.3366667 L28.7197036,37.3366667 L23.4441181,37.3366667 C21.497031,39.7426667 18.4922586,41.2853333 15.1198308,41.2853333 L15.1198308,41.2853333 C9.25086016,41.2853333 4.49364182,36.6126667 4.49364182,30.8493333 L4.49364182,30.8493333 C4.49364182,25.086 9.25086016,20.4133333 15.1198308,20.4133333 L15.1198308,20.4133333 C18.7490767,20.4133333 21.9525453,22.2 23.8698955,24.926 L23.8698955,24.926 L28.9859834,24.926 C26.6570483,19.6733333 21.3246925,16 15.1184791,16 Z M126.257886,44.3666667 L130.904943,44.3666667 L134.089488,38.1786667 L146.327549,38.1786667 L149.326914,44.3666667 L154.048313,44.3666667 L140.403159,17.2873333 L126.257886,44.3666667 Z M140.328141,25.902 L144.568344,34.5646667 L135.885863,34.5646667 L140.328141,25.902 Z M33.5904626,44.3666667 L38.2368436,44.3666667 L41.4213887,38.1786667 L53.6594494,38.1786667 L56.6581393,44.3666667 L61.3795383,44.3666667 L47.7343844,17.2873333 L33.5904626,44.3666667 Z M47.6607181,25.902 L51.9002451,34.5646667 L43.2170882,34.5646667 L47.6607181,25.902 Z M101.263397,35.918 L93.8204017,18.8886667 L89.1368496,18.8886667 L101.282321,46 L108.946315,27.9306667 L116.296721,45.984 L129.070721,18.8886667 L124.387168,18.8886667 L116.4819,35.918 L109.038905,17.6513333 L101.263397,35.918 Z M170.079848,18.8886667 L163.525579,29.07 L156.990909,18.8886667 L152.029587,18.8886667 L161.360196,33.36 L161.360196,44.3666667 L165.67339,44.3666667 L165.67339,33.36 L175.041845,18.8886667 L170.079848,18.8886667 Z M68.3305243,18.8886667 L68.3305243,44.3666667 L72.6443934,44.3666667 L72.6443934,34.0206667 L74.64352,34.0206667 C77.6185555,34.0206667 79.9826342,33.3373333 81.7344043,31.974 L81.7344043,31.974 C83.4868503,30.61 84.3634112,28.762 84.3634112,26.43 L84.3634112,26.43 C84.3634112,24.2513333 83.5429447,22.4473333 81.9013361,21.018 L81.9013361,21.018 C80.963274,20.192 79.8772035,19.632 78.6431247,19.334 L78.6431247,19.334 C77.421211,19.0373333 75.6126706,18.8886667 73.2181792,18.8886667 L73.2181792,18.8886667 L68.3305243,18.8886667 Z M72.6443934,22.436 L74.07041,22.436 C78.1551703,22.436 80.1975504,23.7506667 80.1975504,26.38 L80.1975504,26.38 C80.1975504,29.0973333 78.2173473,30.456 74.2549135,30.456 L74.2549135,30.456 L72.6443934,30.456 L72.6443934,22.436 Z" id="path-1"></path>
    </defs>
    <g id="1.0-home" stroke="none" stroke-width="1" fill="none" fill-rule="evenodd">
        <g id="home/1.-Home---A" transform="translate(-250.000000, -36.000000)">
            <g id="header/clear" transform="translate(249.000000, 20.000000)">
                <g id="logo/white" transform="translate(1.011803, 0.000000)">
                    <path d="M172.212553,44.3074219 C170.631117,44.3074219 169.375751,43.0666992 169.375751,41.5037109 C169.375751,39.9353516 170.631117,38.7 172.212553,38.7 C173.799423,38.7 175.049355,39.9353516 175.049355,41.5037109 C175.049355,43.0666992 173.799423,44.3074219 172.212553,44.3074219 Z M172.212553,43.7488281 C173.484223,43.7488281 174.484168,42.7551758 174.484168,41.5037109 C174.484168,40.246875 173.484223,39.2585937 172.212553,39.2585937 C170.946318,39.2585937 169.940938,40.246875 169.940938,41.5037109 C169.940938,42.7551758 170.946318,43.7488281 172.212553,43.7488281 Z M171.652801,42.7820312 L171.120221,42.7820312 L171.120221,40.1018555 L172.473408,40.1018555 C173.016857,40.1018555 173.419009,40.4509766 173.419009,40.9236328 C173.419009,41.3533203 173.196195,41.6326172 172.788609,41.7292969 L173.538568,42.7820312 L172.886429,42.7820312 L172.185381,41.7991211 L171.652801,41.7991211 L171.652801,42.7820312 Z M171.652801,40.5798828 L171.652801,41.3479492 L172.326677,41.3479492 C172.66905,41.3479492 172.82665,41.2244141 172.82665,40.9504883 C172.82665,40.703418 172.66905,40.5798828 172.342981,40.5798828 L171.652801,40.5798828 Z" id="®" fill="#FFFFFF" fill-rule="nonzero"></path>
                    <mask id="mask-2" fill="white">
                        <use xlink:href="#path-1"></use>
                    </mask>
                    <use id="Clip-2" fill="#FFFFFF" xlink:href="#path-1"></use>
                </g>
            </g>
        </g>
    </g>
</svg>