<?xml version="1.0" encoding="UTF-8"?>
<svg width="95px" height="110px" viewBox="0 0 95 110" version="1.1" xmlns="http://www.w3.org/2000/svg" xmlns:xlink="http://www.w3.org/1999/xlink">
    <title>money-bag</title>
    <g id="1.0-home" stroke="none" stroke-width="1" fill="none" fill-rule="evenodd">
        <g id="home/1.-Home---A" transform="translate(-992.000000, -1071.000000)" fill="#47494A" fill-rule="nonzero">
            <g id="Banking-with-CapWay" transform="translate(0.000000, 800.000000)">
                <g id="Cards" transform="translate(248.000000, 221.928237)">
                    <g id="card-3" transform="translate(640.000000, 0.071763)">
                        <g id="money-bag" transform="translate(104.000000, 49.000000)">
                            <path d="M51.1580042,69.04158 L44.8690229,69.04158 C42.5821206,69.04158 40.7297297,67.1891892 40.7297297,64.9022869 C40.7297297,62.6153846 42.5821206,60.7629938 44.8690229,60.7629938 L55.9376299,60.7629938 C57.4469854,60.7629938 58.6819127,59.5280665 58.6819127,58.018711 C58.6819127,56.5093555 57.4469854,55.2744283 55.9376299,55.2744283 L50.7463617,55.2744283 L50.7463617,51.4553015 C50.7463617,49.9459459 49.5114345,48.7110187 48.002079,48.7110187 C46.4927235,48.7110187 45.2577963,49.9459459 45.2577963,51.4553015 L45.2577963,55.2744283 L44.8690229,55.2744283 C39.5634096,55.2744283 35.2411642,59.5966736 35.2411642,64.9022869 C35.2411642,70.2079002 39.5634096,74.5301455 44.8690229,74.5301455 L51.1580042,74.5301455 C53.4449064,74.5301455 55.2972973,76.3825364 55.2972973,78.6694387 C55.2972973,80.956341 53.4449064,82.8087318 51.1580042,82.8087318 L39.8835759,82.8087318 C38.3742204,82.8087318 37.1392931,84.043659 37.1392931,85.5530146 C37.1392931,87.0623701 38.3742204,88.2972973 39.8835759,88.2972973 L45.2806653,88.2972973 L45.2806653,92.2079002 C45.2806653,93.7172557 46.5155925,94.952183 48.024948,94.952183 C49.5343035,94.952183 50.7692308,93.7172557 50.7692308,92.2079002 L50.7692308,88.2972973 L51.2266112,88.2972973 C51.2494802,88.2972973 51.2723493,88.2972973 51.2952183,88.2972973 C56.5550936,88.2286902 60.7858628,83.9293139 60.7858628,78.6694387 C60.7858628,73.3638254 56.4636175,69.04158 51.1580042,69.04158 Z" id="Path"></path>
                            <path d="M89.2577963,62.8212058 C86.3762994,56.1891892 82.3970894,49.7629938 77.3659044,43.7484407 C71.2827443,36.4303534 65.2224532,31.5363825 62.1351351,29.2723493 L73.7983368,7.63825364 C74.3700624,6.56340956 74.1871102,5.23700624 73.2952183,4.39085239 C70.2765073,1.44074844 67.0748441,0 63.5072765,0 C60.2370062,0 57.2411642,1.23492723 54.6340956,2.33264033 C52.5758836,3.17879418 50.6320166,4.002079 49.0540541,4.002079 C48.5738046,4.002079 48.1621622,3.93347193 47.7505198,3.77338877 C42.3076923,1.78378378 38.1226611,0.548856549 34.0748441,0.548856549 C28.952183,0.548856549 24.5841996,2.60706861 20.3076923,6.997921 C19.4158004,7.91268191 19.2785863,9.35343035 19.987526,10.4282744 L32.5654886,29.4324324 C29.4553015,31.7422037 23.5093555,36.5904366 17.5405405,43.7484407 C12.5322245,49.7629938 8.53014553,56.1891892 5.64864865,62.8212058 C2.03534304,71.1683992 0.205821206,79.8814969 0.205821206,88.7089397 C0.205821206,100.440748 9.76507277,110 21.4968815,110 L73.4095634,110 C85.1413721,110 94.7006237,100.440748 94.7006237,88.7089397 C94.7006237,79.8814969 92.8711019,71.1683992 89.2577963,62.8212058 Z M25.8419958,9.28482328 C28.4948025,6.997921 31.033264,5.99168399 34.0748441,5.99168399 C37.3222453,5.99168399 40.981289,7.08939709 45.8523909,8.8960499 C46.8586279,9.26195426 47.9334719,9.44490644 49.031185,9.44490644 C51.7068607,9.44490644 54.2681913,8.39293139 56.7151767,7.36382536 C59.0706861,6.38045738 61.3118503,5.44282744 63.4844075,5.44282744 C64.5363825,5.44282744 66.022869,5.62577963 67.8981289,6.95218295 L56.9209979,27.3513514 L37.8024948,27.3513514 L25.8419958,9.28482328 Z M73.4095634,104.511435 L21.4968815,104.511435 C12.7837838,104.511435 5.69438669,97.4220374 5.69438669,88.7089397 C5.69438669,74.049896 11.0686071,60.1455301 21.6340956,47.3846154 C28.3118503,39.3118503 35.1039501,34.3035343 37.1621622,32.8399168 L57.6985447,32.8399168 C59.7796258,34.2806653 66.5488565,39.3118503 73.2266112,47.3846154 C83.8149688,60.1455301 89.1665402,74.027027 89.1665402,88.7089397 C89.2120582,97.4220374 82.1226611,104.511435 73.4095634,104.511435 Z" id="Shape"></path>
                        </g>
                    </g>
                </g>
            </g>
        </g>
    </g>
</svg>