<?xml version="1.0" encoding="UTF-8"?>
<svg width="138px" height="128px" viewBox="0 0 138 128" version="1.1" xmlns="http://www.w3.org/2000/svg" xmlns:xlink="http://www.w3.org/1999/xlink">
    <title>bank acct@2x</title>
    <g id="1.0-home" stroke="none" stroke-width="1" fill="none" fill-rule="evenodd">
        <g id="Artboard" transform="translate(-191.000000, -250.000000)" fill="#4A4A4A" fill-rule="nonzero">
            <g id="bank-acct@2x" transform="translate(191.000000, 250.000000)">
                <g id="Group" transform="translate(69.000000, 64.000000) scale(-1, 1) rotate(-180.000000) translate(-69.000000, -64.000000) ">
                    <path d="M3.87975779,126.928372 C2.68598616,126.392558 1.31314879,125.32093 0.89532872,124.487442 C-0.238754325,122.403721 -0.238754325,81.8009302 0.89532872,79.7172093 C2.32785467,76.9786047 5.49134948,76.2046512 14.9221453,76.2046512 C23.8754325,76.2046512 24.8901384,76.5023256 24.8901384,78.8837209 C24.8901384,81.6223256 23.3382353,82.1581395 14.9818339,82.1581395 C9.72923875,82.1581395 6.98356401,82.3962791 6.50605536,82.8725581 C5.4316609,83.944186 5.55103806,120.141395 6.62543253,121.629767 C7.3416955,122.582326 11.0423875,122.64186 69.0596886,122.64186 C127.07699,122.64186 130.777682,122.582326 131.493945,121.629767 C132.568339,120.141395 132.687716,83.944186 131.613322,82.8725581 C131.135813,82.3962791 128.33045,82.1581395 123.077855,82.1581395 C116.213668,82.1581395 115.079585,82.0390698 114.243945,81.0865116 C113.050173,79.7767442 112.930796,77.9311628 113.945502,76.9190698 C115.139273,75.7283721 131.135813,75.9665116 134.060554,77.2167442 C138,78.9432558 138,78.7646512 138,102.102326 C138,125.44 138,125.261395 134.060554,126.987907 C131.911765,127.940465 126.897924,128 68.8806228,127.940465 C11.6989619,127.940465 5.90916955,127.821395 3.87975779,126.928372 Z" id="Path"></path>
                    <path d="M41.3044983,109.425116 C37.8425606,107.52 37.8425606,107.579535 34.1418685,78.5860465 C33.6046713,74.4781395 32.9480969,70.6083721 32.649654,69.9534884 C32.3512111,69.2986047 31.0380623,60.3088372 29.6652249,50.0093023 C28.2923875,39.7097674 26.9195502,30.6604651 26.5614187,29.9460465 C26.2032872,29.2316279 25.9048443,26.7311628 25.8451557,24.2902326 C25.7854671,19.6465116 26.4420415,18.3367442 29.4861592,16.7293023 C31.3365052,15.7767442 106.782872,15.7767442 108.633218,16.7293023 C111.677336,18.3367442 112.33391,19.6465116 112.274221,24.2902326 C112.214533,26.7311628 111.91609,29.2316279 111.557958,29.9460465 C111.199827,30.6604651 109.82699,39.7097674 108.454152,50.0093023 C107.081315,60.3088372 105.768166,69.2986047 105.469723,69.9534884 C105.17128,70.6083721 104.514706,74.4781395 103.977509,78.5860465 C100.276817,107.75814 100.276817,107.579535 96.6955017,109.484651 C94.9048443,110.377674 42.9757785,110.377674 41.3044983,109.425116 Z M94.3676471,103.888372 C94.5467128,103.412093 95.3823529,97.5776744 96.2776817,90.9693023 C97.1730104,84.3013953 98.0683391,78.7646512 98.3070934,78.5860465 C98.4861592,78.4074419 99.799308,69.5962791 101.231834,58.9395349 C102.604671,48.2827907 103.977509,39.0548837 104.275952,38.4 C105.051903,36.7330233 106.723183,23.4567442 106.305363,22.3255814 C106.00692,21.5516279 101.351211,21.4325581 69.0596886,21.4325581 C36.7681661,21.4325581 32.1124567,21.5516279 31.8140138,22.3255814 C31.3961938,23.4567442 33.067474,36.7330233 33.8434256,38.4 C34.1418685,39.0548837 35.5147059,48.2827907 36.8875433,58.9395349 C38.3200692,69.5962791 39.633218,78.4074419 39.8122837,78.5860465 C40.0510381,78.7646512 40.9463668,84.3013953 41.8416955,90.9693023 C42.7370242,97.5776744 43.5726644,103.412093 43.7517301,103.888372 C44.2889273,105.19814 93.8304498,105.19814 94.3676471,103.888372 Z" id="Shape"></path>
                    <path d="M66.6721453,87.04 L66.6721453,84.1823256 L63.9861592,83.467907 C60.2854671,82.5153488 56.2266436,78.4074419 55.2716263,74.775814 C54.2569204,70.667907 55.3313149,67.2148837 58.4351211,64.2976744 C60.9420415,62.0353488 62.4939446,61.3804651 71.0294118,59.2372093 C74.4316609,58.344186 75.3269896,57.867907 76.2820069,56.32 C78.6695502,52.3906977 76.9982699,48.8186047 72.2231834,47.6874419 C67.567474,46.5562791 62.3745675,48.8781395 61.5986159,52.3906977 C61.2404844,54.1172093 61.0614187,54.1767442 57.8979239,54.1767442 L54.5553633,54.1767442 L54.9731834,51.3786047 C55.1522491,49.7711628 55.6894464,48.2827907 56.1072664,47.9255814 C56.5250865,47.627907 57.599481,46.3181395 58.5544983,45.1274419 C59.8079585,43.4604651 61.0614187,42.6269767 63.4489619,41.8530233 L66.6721453,40.8409302 L66.6721453,37.6855814 L66.6721453,34.5302326 L69.0596886,34.5302326 L71.4472318,34.5302326 L71.4472318,37.8046512 C71.4472318,40.5432558 71.6262976,41.0790698 72.5216263,41.0790698 C75.3866782,41.0790698 78.3711073,42.5674419 80.8183391,45.067907 C83.7430796,48.1637209 84.2802768,50.187907 83.8027682,55.5460465 C83.5640138,58.4037209 83.1461938,59.4753488 82.0717993,60.3088372 C81.2958478,60.904186 79.9230104,62.0948837 79.0276817,62.9283721 C77.8935986,63.8809302 75.4463668,64.8930233 71.8053633,65.7265116 C65.2396194,67.3934884 62.9714533,68.4651163 62.016436,70.4893023 C61.1807958,72.3348837 62.4342561,75.8474419 64.1055363,76.4427907 C67.9852941,77.812093 68.8806228,77.9311628 70.9100346,77.3953488 C73.7153979,76.6213953 76.2223183,74.2995349 76.2223183,72.3348837 C76.2223183,70.9060465 76.4013841,70.8465116 79.5648789,70.8465116 L82.967128,70.8465116 L82.6686851,73.704186 C82.2508651,77.9311628 78.550173,82.0986047 74.1929066,83.3488372 L71.4472318,84.1227907 L71.4472318,86.9804651 L71.4472318,89.8976744 L69.0596886,89.8976744 L66.6721453,89.8976744 L66.6721453,87.04 Z" id="Path"></path>
                    <path d="M26.2032872,5.23906977 C25.7854671,4.82232558 25.4870242,3.69116279 25.4870242,2.61953488 C25.4870242,1.19069767 25.7854671,0.654883721 26.8598616,0.357209302 C28.5908304,-0.119069767 109.528547,-0.119069767 111.319204,0.357209302 C112.33391,0.654883721 112.632353,1.19069767 112.632353,2.61953488 C112.632353,3.69116279 112.33391,4.82232558 111.91609,5.23906977 C110.901384,6.25116279 27.2179931,6.25116279 26.2032872,5.23906977 Z" id="Path"></path>
                </g>
            </g>
        </g>
    </g>
</svg>